<svg xmlns="http://www.w3.org/2000/svg" height="1250" viewBox="0 0 937.5 937.5" width="1250" fill="#a7b51a"><path d="M781.25 165.531V78.125C781.195 35 746.25.055 703.125 0h-625C35 .055.055 35 0 78.125v343.75c.121 39.902 30.367 73.273 70.063 77.32l58.734 152.465c15.516 40.258 60.726 60.313 100.988 44.817l366.777-141.29c-25.343 66.2-18.132 140.461 19.461 200.551L625 770.094v151.781c0 8.633 6.992 15.625 15.625 15.625h281.25c8.633 0 15.625-6.992 15.625-15.625V406.113a204.484 204.484 0 0 0-59.863-144.023zm0 93.446l47.422 123.101c9.293 24.164-2.75 51.277-26.91 60.578l-27.106 10.469a78.145 78.145 0 0 0 6.594-31.25zm-750 162.898V78.125c0-25.883 20.992-46.875 46.875-46.875h625C729.008 31.25 750 52.242 750 78.125v99.313h-.137l.137.355v244.082a47.447 47.447 0 0 1-1.063 8.094l-143.125-143.14c-32.171-31.43-83.46-31.673-115.921-.571-32.47 31.12-34.418 82.37-4.391 115.847l61.016 66.645H78.125c-25.883 0-46.875-20.992-46.875-46.875zM231.422 500l-111.11 42.777L103.876 500zm-12.875 167.309c-24.156 9.312-51.285-2.73-60.594-26.887l-26.36-68.547L318.11 500v-.094h257.047l20.309 22.14zM906.25 906.25h-250v-125h250zm0-156.25H649.297l-6.777-10.828c-38.098-60.883-39.614-137.781-3.957-200.11a15.618 15.618 0 0 0-2.047-18.312L508.473 381.062c-19.094-20.898-18.02-53.207 2.422-72.78 20.449-19.579 52.773-19.259 72.82.71l248.988 248.93 22.094-22.094-57.813-57.812 16.032-6.25c40.226-15.52 60.273-60.692 44.797-100.942l-52.887-137.328 50.617 50.723a173.037 173.037 0 0 1 50.707 121.894zm0 0"/><path d="M178.125 218.75c22.438 0 40.625-18.188 40.625-40.625v-75c0-22.438-18.188-40.625-40.625-40.625h-75C80.687 62.5 62.5 80.688 62.5 103.125v75c0 22.438 18.188 40.625 40.625 40.625zM93.75 178.125V156.25H125V125H93.75v-21.875c0-5.176 4.2-9.375 9.375-9.375h75c5.176 0 9.375 4.2 9.375 9.375V125h-31.25v31.25h31.25v21.875c0 5.176-4.2 9.375-9.375 9.375h-75c-5.176 0-9.375-4.2-9.375-9.375zm-15.625 87.5h62.5v31.25h-62.5zm0 93.75h62.5v31.25h-62.5zm281.25 0h62.5v31.25h-62.5zm-187.5-93.75h62.5v31.25h-62.5zm93.75 0h62.5v31.25h-62.5zm93.75 0h62.5v31.25h-62.5zm296.875-187.5h31.25V125h-31.25zm-62.5 0H625V125h-31.25zm-62.5 0h31.25V125h-31.25zm-62.5 0H500V125h-31.25zM687.5 812.5h31.25v31.25H687.5zm0 0"/></svg>