<svg height="512" width="512" xmlns="http://www.w3.org/2000/svg" fill="#a7b51a"><path d="M336 376h16v16h-16zM208 272h16v16h-16z"/><path d="M439.071 253.659c-15.288-25.512-36.952-46.904-62.649-61.863a174.757 174.757 0 0 0-35.689-15.727A175.04 175.04 0 0 0 296 168.18V96h32c35.29 0 64-28.71 64-64V8a8 8 0 0 0-8-8h-56c-26.362 0-49.66 16.215-59.302 39.927A55.66 55.66 0 0 0 240 32h-48a8 8 0 0 0-8 8v16c0 30.878 25.121 56 56 56h40v56.181c-41.169 1.856-80.241 18.002-110.773 45.938-32.295 29.548-52.339 69.725-56.439 113.129l15.93 1.505c3.727-39.446 21.949-75.965 51.311-102.83 15.33-14.026 33.029-24.782 52.109-31.887l.485 38.425c.164 12.98 10.858 23.539 23.838 23.539h28.674a23.81 23.81 0 0 0 23.108-17.981l.062-.24a7.785 7.785 0 0 1 4.465-5.263 7.788 7.788 0 0 1 6.895.305l12.255 6.695a7.835 7.835 0 0 1 4.081 6.88v35.083a23.778 23.778 0 0 0 16.495 22.681l35.081 11.36c2.44.79 4.928 1.169 7.384 1.168 8.597 0 16.795-4.64 21.087-12.521l16.105-29.568C442.305 295.604 448 319.15 448 344c0 5.379-.27 10.718-.798 16h-41.325c-11.865 0-22.08 8.858-23.76 20.606l-1.465 10.259 15.84 2.262 1.465-10.257c.56-3.917 3.965-6.87 7.92-6.87h38.901a159.65 159.65 0 0 1-4.373 16.76l-.081.253c-12.528 38.766-39.746 71.976-76.139 91.721v.001l7.631 14.063c41.574-22.556 71.635-60.329 84.793-104.271a173.328 173.328 0 0 0 5.607-25.394 7.97 7.97 0 0 0 .05-.433A176.53 176.53 0 0 0 464 344c0-32.631-8.926-63.215-24.465-89.441a7.898 7.898 0 0 0-.464-.9zM328 16h48v16c0 26.467-21.532 48-48 48h-32.56c-1.537-10.882-6.211-20.956-13.589-29.215C287.682 30.403 306.48 16 328 16zm-88 80c-22.056 0-40-17.944-40-40v-8h40c22.056 0 40 17.944 40 40v8zm161.996 200.515a8.006 8.006 0 0 1-9.49 3.784l-35.081-11.36A7.82 7.82 0 0 1 352 281.48v-35.083c0-8.723-4.756-16.74-12.411-20.921l-12.254-6.695a23.765 23.765 0 0 0-11.415-2.937c-3.233 0-6.478.667-9.551 2.008-6.808 2.971-11.756 8.805-13.572 15.991l-.062.24a7.833 7.833 0 0 1-7.601 5.918H256.46c-4.269 0-7.786-3.473-7.841-7.742v.001l-.543-43.008a164.013 164.013 0 0 1 40.698-5.246 160.404 160.404 0 0 1 44.245 6.443c37.491 11.01 69.311 35.409 89.906 67.641z"/><path d="M288.121 374.769c.801.079 1.598.118 2.393.118a23.904 23.904 0 0 0 16.944-7.031l11.794-11.794c5.927-5.927 8.345-14.66 6.312-22.792l-1.79-7.163c-1.592-6.366-5.598-11.68-11.279-14.962-5.684-3.283-12.286-4.098-18.598-2.294l-19.018 5.434c-7.452 2.129-13.26 7.522-15.934 14.796s-1.742 15.145 2.557 21.593l9.016 13.523a23.907 23.907 0 0 0 17.603 10.572zm-14.158-40.166a7.917 7.917 0 0 1 5.312-4.932l19.018-5.434a7.947 7.947 0 0 1 6.199.765 7.936 7.936 0 0 1 3.76 4.987l1.791 7.163a8.04 8.04 0 0 1-2.104 7.597l-11.793 11.793a7.98 7.98 0 0 1-6.446 2.304 7.97 7.97 0 0 1-5.868-3.523l-9.016-13.523a7.914 7.914 0 0 1-.853-7.197zm75.855 112.75l29.068-12.458c7.647-3.278 13.129-10.43 14.305-18.665l1.014-7.097-15.84-2.263-1.014 7.098a8.048 8.048 0 0 1-4.768 6.221l-29.068 12.458zm-53.823.647h-71.947c6.743-14.2 4.678-31.596-6.411-43.918L192.75 376.43c-18.462-20.514-45.891-31.269-73.377-28.77L71.637 352H16v16h56c.242 0 .483-.011.725-.033l48.098-4.373c22.486-2.044 44.93 6.755 60.035 23.539l24.887 27.652c7.875 8.751 8.165 21.766 1.085 30.819l-42.392-28.261-8.875 13.312 48 32a7.975 7.975 0 0 0 4.435 1.344h87.998c10.612 0 20.561 4.161 28.013 11.717 5.57 5.649 9.225 12.666 10.652 20.283H194.657L75.748 432.933A7.989 7.989 0 0 0 72 432H16v16h54.01l118.909 63.067a8.001 8.001 0 0 0 3.748.933h150.666a8 8 0 0 0 7.999-7.889c.208-14.926-5.45-29-15.933-39.629C324.918 453.854 310.924 448 295.995 448zM480 104h16v16h-16zm-32 0h16v16h-16zm16-16h16v16h-16zm0 32h16v16h-16zm-344 48h16v16h-16zm-32 0h16v16H88zm16-16h16v16h-16zm0 32h16v16h-16z"/></svg>