<svg version="1.0" xmlns="http://www.w3.org/2000/svg" width="1706.667" height="1080" viewBox="0 0 1280 810" fill="#a7b51a"><path d="M811.7 2.4C797 8.5 775.3 24 737.5 55.5c-15.5 12.8-18.2 14.7-40.1 26.6-19.8 10.8-24.3 13.7-30.5 19.6l-4.5 4.4-6.7-4.5c-18.2-11.9-33.7-11.1-47.9 2.4-2.9 2.8-6.1 5-7.1 5-2.7 0-16.8-6.7-28.4-13.6-5.4-3.1-24.6-15.3-42.8-26.9-44-28.2-49.9-31.9-64.5-40.3-21.4-12.2-33.6-16.2-36.3-12-1.7 2.5.9 9.7 4.8 13.3 5.8 5.2 32.6 21.8 108.5 67 17.3 10.3 33 19.8 34.8 21l3.3 2.2-4.7.7c-9.6 1.3-19.5 9.3-22.4 18.2-1.1 3.3-1.3 3.4-6.3 3.4-13.5 0-21.9 10.9-22 29-.2 11.3 2 17.7 8.3 24.2 4.3 4.5 5.1 5.9 6.9 13.7 3 12 5.1 24.7 5.1 30.3v4.8l-3.9-3.9C530 229 505.8 221.2 500.5 227c-1.7 1.9-1.8 1.8-5.4-2.8-5.1-6.4-12.8-13.2-24.1-21.2-16.4-11.6-38.8-23.9-49.6-27-4.1-1.2-4.1-1.2-5.9-8.9-5.5-23.6-17.3-44.5-33.8-59.7-11.6-10.6-28.1-21-53.6-33.5l-23.6-11.7-.6 3.4c-.8 4.4-3.2 6.9-8.5 9-2.4.9-4.1 2.1-3.8 2.6 1.2 1.9 9.6 6.5 31.9 17.6 34.3 17 40.3 21.8 53.7 42.2 13.7 20.9 23.8 44.8 23.8 56.3 0 4.5.5 5.5 5.1 10.8 11.4 13.1 27.4 24.1 58.4 39.7 25.1 12.7 26.1 13.3 26.8 16.9.3 1.6 1.5 4 2.6 5.5 2.2 2.7 13.7 9 23.6 12.8 8.1 3.1 8.5 3.7 3.4 5-11.2 3.1-74.9-7.4-105.9-17.4-55.1-17.8-145.6-39.5-208.6-50.1-48.5-8.1-81.7-11-117.4-10.2-31.7.6-45.2 3-61.8 10.9C4.3 228-5.2 252.6 3 279.5c8.1 26.1 33.3 56.3 64.5 76.9 41.8 27.7 84.5 35.6 113.8 21 2.7-1.3 5-2.4 5.2-2.4.3 0-.5 1.6-1.7 3.7-3.3 5.4-3 14.2.7 21.3 12.1 23.7 63 50.3 121.7 63.4 17.6 4 30.8 5.6 45.8 5.6 17 0 22.6-1.4 33.9-8.4 29.4-18.2 123.6-65.8 154.3-78 17.3-6.8 16.2-6.9 18.2.4 2.5 8.9 3.1 16.4 1.6 19.9-1.3 3.2-2 3.6-9 4.6-10.4 1.5-24 7-31.3 12.7-4.3 3.5-8.3 9.8-9.2 14.8-.6 3.5-.9 3.6-7.8 5.4-48.6 12.4-83.9 28.5-92.8 42.4-2.4 3.8-3 5.6-2.7 9.3l.3 4.7-11 11.3c-11.7 12.1-19.1 22.2-22.4 30.7-2.9 7.3-3.6 17.3-1.7 24.2 1.7 6.5 1.8 6.4-8.9 14.5-23.6 17.8-63.5 39-83.1 44.2-3.5 1-6.4 2.1-6.4 2.5 0 .4.5.8 1 .8 2.4 0 10.3 4.5 11.7 6.6.8 1.3 1.5 3.9 1.5 5.8 0 2 .7 4.1 1.5 4.7 3.6 3 24.9-4.6 45-16.1 21.1-12.1 37.1-25.3 44.3-36.3 2.6-4.1 7.1-8.8 13.3-13.9 9.6-7.9 17.2-17 19.5-23.6.8-2 1.8-9.1 2.2-15.7.4-6.6 1.3-14 2-16.5l1.1-4.5 8-1.8c15.3-3.5 48.5-22.1 81.1-45.4l16.2-11.6 1.8 2.3c5.7 7-.7 22.5-28.2 69-28.1 47.5-39.8 74.1-45.4 103-.4 1.7-2.5 4-6.3 6.6-15.9 11.3-27 23-33 35.1-3.4 6.9-3.6 7.6-3 14.9l.6 7.6-14.2 14.3c-8.4 8.4-21.3 19.9-31.4 27.8-9.4 7.5-17.8 14.6-18.7 15.8-1.8 2.7-.8 4.4 3.2 5.4 4.9 1.2 7.2 3.3 7.2 6.6v3.1l5.8-3.2c21.5-12.1 39.7-28.9 54.7-50.4 6.8-9.7 9.6-13 11.5-13.3 6.4-.9 19.3-11.9 27.9-23.6 7.4-10.1 13.3-22.4 16.1-33.5.6-2.3 1.7-4.2 2.4-4.2 2.8 0 10.5-6.3 14.4-11.9 6.2-8.8 12-21.4 20.2-44.1l7.5-20.5.2 7c1.5 45.7 10 84.1 28 126 32.1 75 82.9 122.6 119 111.7 34.7-10.6 86-77 111.4-144.2 12.2-32.4 19.1-70.3 17.6-96l-.6-9.5 2.8 7c11.9 30.7 37.7 62.5 50.7 62.5 3 0 3.2.3 3.9 4.5 3.4 22.9 25.5 51.1 40.6 51.9 3.5.2 5.5 1.8 23.1 18.3 22.1 20.8 30.9 28.3 41.1 35.1 7.4 5 14.9 9.2 16.5 9.2.5 0 1.2-1.7 1.6-3.8.5-3.1 1.9-5 8.6-11.1 4.5-4 7.9-7.8 7.7-8.4-.2-.6-2.4-1.6-4.9-2.3-12.3-3.1-65.4-36.6-75.1-47.3-4-4.4-4.5-6.5-2.2-9.5 6.9-9.2-9.4-27.3-39.2-43.8l-7.3-4v-5.1c-.1-22.6-15.5-49.9-48.5-85.6-6.8-7.5-14.5-16.3-17-19.6-6.3-8.4-13-21.6-15.8-31.6-2.9-9.9-5.1-25.9-3.8-27.2 1.5-1.5 9.2.1 15.7 3.2 3.3 1.6 14.5 8.6 25 15.6 27.6 18.6 44.9 26.4 62.1 28.1l6.3.7v6.6c.1 22 15.8 49.2 33.1 57 2.4 1.1 5.4 2.1 6.6 2.1 1.6 0 3 1.5 5.3 5.9 9 16.9 26.2 31 51 41.7 11 4.8 34.8 13.3 35.5 12.6.2-.3.2-2.1-.1-4.1-.6-3.5-.3-4 7-10.9 4.2-3.9 7.6-7.4 7.6-7.7 0-.3-1.1-.5-2.5-.5-4.9 0-15.2-4.2-39-16-24.6-12.1-41.8-22.1-47.8-27.6-3.3-3.1-3.4-3.3-4-14-1.4-24.8-10.5-44.8-27.5-60.5-5.7-5.2-6.8-6.8-6.1-8.4 1.4-3.7.9-8.2-1.2-10.9-4.4-5.5-14.1-9-36.9-13.1-28.9-5.2-46.7-9.9-61.2-16.1-13.6-5.8-20.4-11.5-24.8-20.6-2.4-5.1-2.7-5.3-9.5-7.4-3.8-1.2-11.9-3.3-18-4.7-10.8-2.4-11-2.5-10.8-5.1.2-2.5 5.7-16 7.3-17.9.4-.5 10.1 3.5 21.6 8.8 83.8 38.8 128.7 56.1 162.5 62.6 9.9 1.9 12.3 2 19.9 1 19.5-2.5 41.6-10 70.5-24.1 48-23.3 83.5-52.6 83.5-68.8 0-5-1.3-7.9-4.7-10.7l-2.4-2 11.8-.1c26-.3 69.9-13.6 86.8-26.3 5.1-3.9 26.6-26.7 38.5-41.1 33-39.6 48.6-70.3 42.6-84.3-1.8-4.3-4.7-6.8-13.6-11.5-44.5-23.8-118.1-23.8-212.2-.2-54.7 13.8-103 30.3-192.8 65.8-25 9.9-49.8 19.4-55 21.1-17.5 5.7-29 7.4-34 4.8-4.2-2.1-3.5-4.1 3-9.2 7.2-5.7 11.5-12 13.7-19.6 1.5-5.6 1.6-5.6 7.2-7.4 8-2.5 21.8-9.8 29.8-15.7 13.5-10.1 30.8-30 37.6-43.4.9-1.8 4.6-6 8.2-9.5 7.9-7.5 14.7-18.2 18.2-28.1 1.9-5.6 2.7-10.2 3.2-20.7.4-7.5 1.2-14.5 1.8-15.6 3.8-6.9 23.3-20.9 49.2-35.1 16.8-9.2 24.1-15.3 24.1-20.2 0-3.5-2.2-5.2-6.7-5.2-2.3 0-3.6-.9-6.1-4.5-3.1-4.5-6.5-5.8-8.7-3.6-.6.6-7.1 4.2-14.5 8.1-30.2 16-46.7 30.2-54.8 47.2-2 4.3-4.2 7.8-4.8 7.8-1.6 0-6 5.1-8.2 9.5-2.8 5.8-4.8 14.7-7.7 34.3-1.4 9.6-2.8 17.8-3.1 18.3-.3.5-2.6.9-5.2.9-10.1 0-21.2 7.4-46 30.8-22.7 21.3-23.7 22.2-27.2 22.2-4.4 0-12 3.2-22.3 9.4-5.1 3-10.1 5.6-11.2 5.8-1.4.2-3.1-1.5-6.7-6.6-2.6-3.8-4.8-8-4.8-9.2 0-1.3 2.1-5.1 4.8-8.6 13.2-17.4 16.9-43.6 8.6-59.9-3.8-7.6-7.2-9.4-17.9-9.5-9.7-.1-19-2.9-26.8-8-3.6-2.3-7.7-7.7-7.7-10 0-.5 4.2-3.7 9.3-6.9 17.9-11.6 72.8-53.9 97.7-75.3 10.8-9.4 24.4-22.6 27.8-27 2.5-3.3 2.6-3.5.7-4.8-2.7-2-7.2-1.7-13.8 1z"/></svg>