<svg xmlns="http://www.w3.org/2000/svg" viewBox="0 0 41.6 45.4" fill="#313131"><path d="M39.5 11.1c-.4-3.6-1-6.5-1.9-7.6C33.7-1 6.7-1.3 3.7 3.5c-.8 1.2-1.3 4-1.6 7.6-1.1.1-2 1.1-2 2.3v4.4c0 1 .6 1.8 1.5 2.1-.2 7 0 14.3.3 17.9 0 2.8 1.9 2.3 1.9 2.3h1.8v3c0 1.2 1.2 2.2 2.8 2.2 1.5 0 2.8-1 2.8-2.2v-3h20.5v3c0 1.2 1.2 2.2 2.8 2.2 1.5 0 2.8-1 2.8-2.2v-3h.6s2.2.3 2.4-1c0-3.6.2-11.6 0-19.2.9-.3 1.6-1.1 1.6-2.2v-4.4c-.3-1.1-1.2-2.1-2.4-2.2zM10.2 4.2H31v3.1H10.2V4.2zm.3 32.5c-1.6 0-2.9-1.3-2.9-2.9 0-1.6 1.3-2.9 2.9-2.9s2.9 1.3 2.9 2.9c.1 1.5-1.2 2.9-2.9 2.9zm20.4 0c-1.6 0-2.9-1.3-2.9-2.9 0-1.6 1.3-2.9 2.9-2.9s2.9 1.3 2.9 2.9c0 1.5-1.3 2.9-2.9 2.9zm3.7-12.9h-28V9.1h28v14.7z"/></svg>