<svg xmlns="http://www.w3.org/2000/svg" viewBox="0 0 475.7 323.5" fill="#a7b51a"><path d="M473 79.4l-51.2-53.5 22.3-14.2L445.4.6 435 0l-26.8 19.3h-33.5L354.2 6.8l-7.3 1.5.1 8.1 13.2 14.7-1.8 7.7-155.5 16.7-161-4.5-17.4 7.3-12.8 16.2-6.6 38L4 139.8l-4 25.5 1.1 25.4 4.5 1 6.5-7.2 5.3-23.9-4.3-33 1.5-.2 10.1 50.3-6.9 43.7 6.3 87.2.6 9.6 6.1 5.3h27.1l8.7-2.6-24.2-39.5 12-50h6.3L82.6 298l11.3 17 5.6 3.5h29.9l3.8-4.8-25.8-15.9-17.6-54 4.4-8.7 10.3.9 6.5 15.9 9.3-15.5 9.1 15.5 7.7-16.8 22.6-17.4L240 210l13.5 16.5 11.3 80.5 6 11.6h27.4l2.9-4.3-16.6-23.2-2-44.1 9 5 9.4 29.3 12.1 38 5.3 4.2h24.5l2.1-5.5-7.2-6.6-23.1-45.1 5.3-47.3 25.9-19.1 37.7-70 43.3-20 39.9-4.6 3.4-3.7 5.6-15.7z"/></svg>