<svg xmlns="http://www.w3.org/2000/svg" viewBox="0 0 346.9 284.3" fill="#a7b51a"><path d="M346.7 80.3c-1.6-5.7-5.3-9.8-9.2-14.1-3.6-4-7.3-8.1-9.5-13.7-.7-1.8-1.5-4-2.3-6.6-4.8-13.7-11.9-34.5-25.7-41.3-6.1-3-12.1-4.6-17.9-4.6-11.8 0-21.8 6.4-29.8 19.1-7.8 12.4-6.6 30.3-5.4 47.6 1.1 16.6 2.2 32.2-5.3 39.8h-.1c-1.5 0-5.6-2.5-10.3-5.5-11.5-7.1-30.7-19-51.5-20.2-.7 0-1.5-.1-2.4-.1-23.3 0-76.6 17-111.9 28.3-16.9 5.4-30.2 9.7-34.4 10.2-1 .1-4.1.5-4.6 2.7-.7 2.9 3.5 6.3 9.6 10.9 1.8 1.3 4.1 3.1 5 4-1.8.4-6.8.6-11.4.7-14.7.6-26.1 1.2-28.8 4.4-.5.6-.7 1.3-.6 2 .4 3.1 4.8 4.5 10.9 6.3 8.7 2.6 20.7 6.2 28.3 16.9 19.3 26.9 51.2 62.7 105.4 62.7h2.6c-.6 1.4-1.2 2.8-1.9 4-2.4 4.1-4.8 4.2-9.6 4.3-2.1.1-4.6.1-7.6.6-3.3.5-4.7 1.2-5 2.5-.4 1.9 2.2 3.5 6.9 6.4 6.3 3.8 14.9 9.1 18.4 16.6 2.7 5.6 4.9 8.3 7.1 8.3 2.1 0 3.5-2.1 4.5-6.4.1-.2.1-.3.1-.3 1.4 0 5.3 3.7 8.8 7 5.3 5 11.4 10.7 16 11.5.2 0 .5.1.6.1 1.1 0 1.6-.6 1.8-.9.9-1.6-.6-4.5-3.2-9.1-.9-1.5-2.1-3.7-2.5-4.8.1 0 .2.1.4.2 4.1 1.9 10 2.9 13.7 2.9 2.7 0 4.1-.5 4.4-1.6.4-1.3-1.1-2.2-1.6-2.5-.7-.4-2-1.2-3.7-2.2-1.1-.7-2.2-1.3-3.3-1.9.5.1 1.1.1 1.6.2 7.3.8 17.3 1.9 23.7 7.2 3.8 3.2 6.7 4.7 8.6 4.7 1 0 1.8-.4 2.3-1.1 1-1.3 1.1-3.5.4-6.9v-.3s.2-.2.8-.2c2 0 6 1.2 10.2 2.5 5.6 1.8 12 3.7 16.5 3.7 1.1 0 2 .1 2.8-.1 1.4-.4 1.8-.9 1.8-1.5.3-1.9-2.4-3.9-6.7-7-1.4-1-3.4-2.4-4.3-3.3h.4c5.8 0 16.8-3.2 17-6.2 0-.7-.4-1.7-2.5-1.9-.8-.1-2.3-.2-4.3-.4-29.5-2.5-44.9-5.5-46-9-.8-2.7-.1-11.5 1-21 22.1-3.5 45.1-8.9 62-17.4 34.4-17.2 34.9-68.1 25.5-90.5-13.6-32.6-18.7-52-15-57.5 1-1.5 2.7-1.8 5.3-1.1 1.6.4 3.2.7 4.8.7 1.2 0 2.2-.1 3.1-.2.7-.1 1.4-.2 2.1-.2 2.1 0 4.5.7 10.4 8.7 11.1 15.2 24.4 18.1 26.9 18.5.6.1 1.2.2 1.7.2 1.9 0 3.4-.6 4.3-1.7.7-1 .9-2.1.6-3.1zm-162 179.8c-18.6-11.3-27.8-18.6-27.3-21.6.3-1.7 1.9-5.1 4.3-9.3 9.9-.5 22.8-1.5 36.8-3.2 1.9 6.9 3.3 14.1 2.8 19.5-.4 4.8-2.6 5.8-6.8 8-1.9 1-4.1 2-6.6 3.7-1.7 1.2-2.7 2.1-3.2 2.9z"/></svg>