<svg xmlns="http://www.w3.org/2000/svg" viewBox="0 0 316 383.3" fill="#a7b51a"><path d="M316 253.9c0-.4-.2-1.2-1.5-1.5-1.8-.4-4.6-2.7-8.2-5.7-8.8-7.3-22.1-18.2-40.1-18.2h-1.6c-3.9 0-14.7-9-28.3-20.5-7.7-6.4-16.3-13.7-25.8-21.1-21.1-16.5-45.4-18.6-71.1-20.9-7.5-.7-15.3-1.4-23-2.4-8.5-1.2-15-5-19.4-11.3-8.2-11.7-9.5-31.8-3.7-59.7.2-1.1.4-1.9.5-2.4.1-.7.3-1.7.5-2.9 1.7-9.9 6.2-36.2 6-48-.2-15.4-.6-34.7-28.9-39C70.3.1 69.2 0 68 0 56.5 0 45.6 8.3 36 15.7c-4.9 3.8-9.6 7.4-13.4 8.9-1.7.7-4.2 1.6-6.9 2.6C2.6 32 0 33.3 0 34.8v.8l.8.2c.3.1 28.5 5.6 38.5 6.7 9.1 1 17.1 13.7 20.1 18.5l.5.7c1.3 2 5 10.3.2 33.6-1.4 6.9-6.7 16-13.4 27.5-6.4 11-14.4 24.8-21.4 41-15.1 34.9-3.4 66.7 12.6 84.9.7.7 1.4 1.7 2.3 2.8 7.6 9.1 24.3 29.3 58.2 44.6 1.6 12.6 3.4 33.4 3 37.5-.4 3.6-1.6 6.8-12.7 6.8-2.1 0-4.6-.1-7.4-.4-5.6-.5-10.1-.8-13.2-.8-4.5 0-6.3.5-6.6 1.8-.2 1.2.9 2.1 3.5 3.3-2.2.3-5 .8-7.6 1.4-9.6 2-9.6 3.1-9.7 4-.1 1.5 2 1.8 3 1.9 4.3.6 8.1.9 11.1 1.1 1.4.1 2.7.2 3.8.3-2.6 1.8-8 6-7.5 8 .1.3.3 1.1 1.6 1.1.3 0 .6 0 1.1-.1 2.1-.5 5.3-1.3 9.4-2.4 9.5-2.6 22.6-6.1 33.1-7.6 4.8-.7 8.7-1 11.8-1.2 5.2-.4 7.7-.6 8.7-2.1.5-.7.5-1.6.1-2.8-.8-2.2-2.9-3.1-4.9-4.1-2.5-1.2-4.9-2.3-5.1-5.7-.3-4.1.4-15.8.9-25.2.2-2.9.3-5.7.5-8 5.6 2.1 10.8 3.9 15.6 5.5 0 .2.1.5.1.7 1.5 7.7 4.7 40.4 4.2 45.6-.4 3.6-1.6 6.8-12.7 6.8-2.1 0-4.6-.1-7.4-.4-5.6-.5-10.1-.8-13.2-.8-4.5 0-6.3.5-6.6 1.8-.2 1.2.9 2.1 3.5 3.3-2.2.3-5 .8-7.6 1.4-9.6 2-9.6 3.2-9.7 4-.1 1.5 2 1.8 3 1.9 4.3.6 8.1.9 11.1 1.1 1.4.1 2.8.2 3.8.3-2.6 1.8-8 6-7.5 8 .1.3.3 1.1 1.6 1.1.3 0 .6 0 1.1-.1 2.1-.5 5.3-1.3 9.4-2.4 9.5-2.6 22.6-6.1 33.1-7.6 4.8-.7 8.7-1 11.8-1.2 5.2-.4 7.7-.6 8.7-2.1.5-.7.5-1.6.1-2.8-.8-2.2-2.9-3.1-4.9-4.1-2.5-1.2-4.9-2.3-5.1-5.7-.3-4.1.4-15.9.9-25.3.4-6.2.7-11.6.7-14.1 0-.9.1-2.2.2-3.8 10.7 2.8 18.9 4 26.3 4 6.1 0 12-.8 18.5-2.5 23-6.1 30.1-13.8 36.9-21.2 6.4-7 12.5-13.6 31.7-18.2 6.9-1.7 19.6-6 31.6-10.8 21.6-8.4 21.5-10.5 21.5-11.4z"/></svg>