<svg xmlns="http://www.w3.org/2000/svg" viewBox="0 0 598.5 608.4" fill="#a7b51a"><path d="M39.9 89.8h84.8c4.7 0 9.3-.9 13.6-2.8l-45.6 45.6 14.1 14.1 62.8-62.8 25.8 25.8-32.8 32.8 14.1 14.1L299.3 34 360 94.8l-27.9 27.9 14.1 14.1L428.9 54l30.6 30.6c2.5 12.4 12.2 22 24.5 24.5l27.6 27.6 14.1-14.1-12.9-12.9h50c19.4-.3 35-16.2 35-35.6 0-19.4-15.6-35.3-35-35.6-3.9 0-7.8.7-11.6 1.9-8.5-7.8-19.9-11.5-31.4-10.2-11.4 1.3-21.8 7.4-28.3 16.9-11-.4-21.4 4.9-27.4 14L436 32.8c-3.9-3.9-10.2-3.9-14.1 0l-47.8 47.8-67.8-67.8c-3.9-3.9-10.2-3.9-14.1 0l-82.7 82.7-32.8-32.8c-3.9-3.9-10.2-3.9-14.1 0l-5.7 5.7c4.7-11.2 3.3-24-3.8-33.9-7.1-9.9-18.8-15.4-30.9-14.5C114.9 9 103 1.7 89.8.3c-13.2-1.5-26.4 3-36 12.2C38.9 6.9 22 10.8 11 22.3 0 33.9-3.1 50.9 3.2 65.6 9.5 80.3 24 89.8 39.9 89.8zM490.2 67c1.2 0 2.4.3 3.5.7 4.9 1.6 10.3-.8 12.3-5.6 2.8-6.6 9.1-11.2 16.2-12 7.2-.8 14.2 2.4 18.4 8.3 3.1 4.4 9.1 5.6 13.6 2.6 5.6-3.7 12.9-3.4 18.2.7 5.3 4.1 7.4 11.1 5.2 17.4-2.2 6.3-8.1 10.6-14.8 10.6h-70l-13.6-13.6c1.1-5.2 5.6-9.1 11-9.1zM39.9 29.9c3.9 0 7.7 1.1 10.9 3.3 4.5 2.9 10.5 1.8 13.6-2.6 5.2-7.4 14-11.4 23-10.5 9 .9 16.8 6.7 20.3 15 2 4.8 7.4 7.2 12.3 5.6 5.7-2 11.9-.4 16 4 4 4.4 5.1 10.8 2.6 16.3a15 15 0 0 1-13.9 8.8H39.9c-11 0-19.9-8.9-19.9-19.9 0-11 8.9-20 19.9-20zm11.5 538c1.8 3 5 4.8 8.5 4.8v35.8h19.9v-39.8c10.4 0 20.4 4.1 27.9 11.3 3.9 3.8 10.1 3.8 14 0 8-7.9 19-12.1 30.2-11.4 11.2.7 21.6 6.1 28.6 15 2 2.5 5.2 3.9 8.4 3.7 3.2-.2 6.2-2 7.9-4.8 3.3-5.4 7.6-10.2 12.6-14v39.9h20v-48.8c25.2-5.4 50.3 9.5 57.6 34.1 1 3.2 3.5 5.8 6.8 6.7 3.2.9 6.8.2 9.3-2 14.9-13.3 37.5-13.2 52.3.3 1.1.9 2.3 1.6 3.6 2v7.7h19.9v-19.8c20.1-15.3 48.6-13 66 5.4 2.4 2.5 6 3.6 9.4 2.8 3.4-.8 6.2-3.3 7.3-6.7 6.8-21.3 24.9-37 47-40.7v59h19.9v-58.9c8.3 1.4 16.2 4.5 23.2 9.1 4.5 3 10.7 1.9 13.8-2.6 7.4-10.9 19.7-17.4 32.9-17.4v-20c-16.4 0-32.2 6.8-43.4 18.7-8.3-4.2-17.2-7-26.4-8.1V453l32.8 32.9 14.1-14.1-47-46.9v-31.6l42.8 42.8 14.1-14.1-56.9-56.9v-31.6l32.8 32.9 14.1-14.1-47-46.9v-31.6l42.8 42.8 14.1-14.1-56.9-56.9V214l32.8 32.9 14.1-14.1-49.9-49.9c-3.9-3.9-10.2-3.9-14.1 0l-49.9 49.9 14.1 14.1 32.8-32.9v31.6l-56.9 56.9 14.1 14.1 42.8-42.8v31.6L461.8 352l14.1 14.1 32.8-32.9v31.6l-56.9 56.9 14.1 14.1 42.8-42.8v31.6l-46.9 46.9 14.1 14.1 32.8-32.9V529c-25.7 3.2-48.2 18.6-60.4 41.4-20.5-14-46.9-16.1-69.3-5.4V453l32.8 32.9 14.1-14.1-46.9-46.9v-31.6l42.8 42.8 14.1-14.1-56.9-56.9v-31.6l32.8 32.9L426 352l-46.9-46.9v-31.6l42.8 42.8 14.1-14.1-56.9-56.9v-31.6l32.8 32.9 14.1-14.1-49.9-49.9c-3.9-3.9-10.2-3.9-14.1 0l-49.9 49.9 14.1 14.1 32.8-32.9v31.6l-56.9 56.9 14.1 14.1 42.8-42.8v31.6L312 352l14.1 14.1 32.8-32.9v31.6L302 421.7l14.1 14.1 42.8-42.8v31.6l-47 46.9 14.1 14.1 32.8-32.9v123.9c-17.8-10.4-39.8-10.8-58-1.2-12-22.9-35.8-37.2-61.7-37.1-3.3 0-6.7.3-10 .8v-46.5l32.8 32.9 14.1-14.1-46.9-46.9V433l42.8 42.8 14.1-14.1-56.9-56.9v-31.6l32.8 32.9L276 392l-46.5-47v-31.6l42.8 42.8 14.1-14.1-56.9-56.9v-31.6l32.8 32.9 14.1-14.1-49.9-49.9c-3.9-3.9-10.2-3.9-14.1 0l-49.9 49.9 14.1 14.1 32.8-32.9v31.6L152.6 342l14.1 14.1 42.8-42.8V345l-46.9 46.9 14.1 14.1 32.8-32.9v31.6l-56.9 56.9 14.1 14.1 42.8-42.8v31.6l-46.9 46.9 14.1 14.1 32.8-32.9v52.5c-8.5 4-16 9.7-22.3 16.7-20.9-17.1-50.6-18.1-72.5-2.2-10.2-7.3-22.4-11.2-34.9-11.2V453l32.8 32.8 14.1-14.1-47-46.9v-31.6l42.8 42.8 14.1-14.1L79.7 365v-31.6l32.8 32.9 14.1-14.1-47-46.9v-31.6l42.8 42.8 14.1-14.1-56.9-56.9v-31.6l32.8 32.9 14.1-14.1-49.9-49.9c-3.9-3.9-10.2-3.9-14.1 0l-49.9 49.9L27 246.4l32.8-32.9v31.6L3 302.2l14.1 14.1 42.8-42.8v31.6l-47 46.9L27 366.1l32.8-32.9v31.6L3 421.8 17.1 436l42.8-42.8v31.6l-47 46.9L27 485.8 59.9 453v92.9C44.9 528.6 23 518.6 0 518.7v20c21.1-.1 40.7 11 51.4 29.2z"/></svg>