<svg xmlns="http://www.w3.org/2000/svg" viewBox="0 0 512 483.5" fill="#a7b51a"><path d="M334.2 189.2h-3.6v-58.5c0-5.9-4.8-10.7-10.7-10.7h-55.4c-5.9 0-10.7 4.8-10.7 10.7v58.5h-3.6c-4.2 0-7.7 3.4-7.7 7.7s3.4 7.7 7.7 7.7h84c4.2 0 7.7-3.4 7.7-7.7s-3.5-7.7-7.7-7.7zm-18.9 0h-46.1v-53.9h46.1v53.9zm123.6 0h-3.6v-58.5c0-5.9-4.8-10.7-10.7-10.7h-55.4c-5.9 0-10.7 4.8-10.7 10.7v58.5h-3.6c-4.2 0-7.7 3.4-7.7 7.7s3.4 7.7 7.7 7.7h84c4.2 0 7.7-3.4 7.7-7.7s-3.5-7.7-7.7-7.7zm-18.9 0h-46.1v-53.9H420v53.9zm18.6 153.1h-76c-7 0-12.6 5.7-12.6 12.6v61.8c0 4.2 3.4 7.7 7.7 7.7h86c4.2 0 7.7-3.4 7.7-7.7v-61.8c-.2-6.9-5.9-12.6-12.8-12.6zm-2.7 66.8h-70.7v-51.5h70.7v51.5zm-128.3-25.8c-4.2 0-7.7 3.4-7.7 7.7v13.3c0 4.2 3.4 7.7 7.7 7.7s7.7-3.4 7.7-7.7V391c-.1-4.2-3.5-7.7-7.7-7.7z"/><path d="M492 444.6h-20.8V274.4h5.3c6 0 10.8-4.8 10.8-10.8v-18.1c0-6-4.8-10.8-10.8-10.8h-5.3V129.5l10.6 7c3.3 2.2 7 3.3 10.8 3.3 3.8 0 7.5-1.1 10.8-3.3 5.4-3.6 8.7-9.7 8.7-16.2s-3.2-12.6-8.7-16.2L462.5 77c-3.5-2.3-8.3-1.4-10.6 2.1s-1.4 8.3 2.1 10.6l40.8 27.1c1.7 1.1 1.9 2.8 1.9 3.5 0 .7-.2 2.3-1.9 3.5-1.4.9-3.2.9-4.6 0L349.6 30.3c-3.8-2.5-8.7-2.5-12.5 0l-140.6 93.6c-1.4.9-3.2.9-4.6 0-1.7-1.1-1.9-2.8-1.9-3.5 0-.7.2-2.3 1.9-3.5L343.3 16.1l71 47.2c3.5 2.3 8.3 1.4 10.6-2.1 2.3-3.5 1.4-8.3-2.1-10.6L349.6 1.9c-3.8-2.5-8.7-2.5-12.5 0l-45.6 30.4V20.1c0-6-4.8-10.8-10.8-10.8h-50.8c-6 0-10.8 4.8-10.8 10.8v15c0 5 3.5 9.2 8.1 10.4V75l-43.8 29.2c-5.4 3.6-8.7 9.7-8.7 16.2s3.2 12.6 8.7 16.2c6.5 4.4 15 4.4 21.6 0l10.6-7v93.1L129 183.2c-3.1-1.4-6.7-1.4-9.8 0L4.8 235.3C2 236.4 0 239.2 0 242.4v21.2c0 6 4.8 10.8 10.8 10.8h6.6v170.4C7.9 446.1.6 454.2.6 464.1c0 10.7 8.7 19.5 19.5 19.5h472c10.7 0 19.5-8.7 19.5-19.5-.1-10.8-8.9-19.5-19.6-19.5zM268 47.8l-25.5 17v-19H268v2zm-33.6-23.2h41.7v5.9h-41.6l-.1-5.9zm-3.6 209.9V119.3l112.6-74.9 112.5 74.9v115.4H230.8v-.2zm-106.7-36.7l81.1 36.9H43l81.1-36.9zM15.3 259.1V250h456.6v9.1H15.3zm309.3 73.8h-59.5c-7.6 0-13.7 6.1-13.7 13.7v97.9h-20.6V274.4h225.1v170.2H338.3v-97.9c0-7.6-6.2-13.8-13.7-13.8zm-1.6 15.3v96.3h-56.3v-96.3H323zM80.1 352H65.2v-13c0-1.8 1.4-3.2 3.2-3.2h111.2c1.8 0 3.2 1.4 3.2 3.2v13H128c-4.2 0-7.7 3.4-7.7 7.7s3.4 7.7 7.7 7.7h54.9v16.2H65.2v-16.2h14.9c4.2 0 7.7-3.4 7.7-7.7s-3.4-7.7-7.7-7.7zm102.8 46.8V415H65.2v-16.2h117.7zm0 31.5v14.3H65.2v-14.3h117.7zm-3.2-109.8H68.5c-10.2 0-18.5 8.3-18.5 18.5v105.6H32.7V274.4h182.8v170.2h-17.2V339c-.1-10.2-8.4-18.5-18.6-18.5zM492 468.2H20c-2.3 0-4.2-1.9-4.2-4.2s1.9-4.2 4.2-4.2h472c2.3 0 4.2 1.9 4.2 4.2s-1.9 4.2-4.2 4.2z"/></svg>