<svg xmlns="http://www.w3.org/2000/svg" viewBox="0 0 512 512" fill="#a7b51a"><path d="M334.206 203.39h-3.605v-58.51c0-5.88-4.784-10.664-10.664-10.664h-55.435c-5.88 0-10.664 4.784-10.664 10.664v58.51h-3.605a7.657 7.657 0 1 0 0 15.314h83.973a7.657 7.657 0 1 0 0-15.314zm-18.92 0h-46.135v-53.86h46.135v53.86zm123.609 0h-3.605v-58.51c0-5.88-4.784-10.664-10.664-10.664H369.19c-5.88 0-10.664 4.784-10.664 10.664v58.51h-3.605a7.657 7.657 0 1 0 0 15.314h83.973c4.229 0 7.657-3.428 7.657-7.657s-3.427-7.657-7.656-7.657zm-18.92 0H373.84v-53.86h46.135v53.86zm18.589 153.136h-75.999c-6.975 0-12.649 5.675-12.649 12.649v61.796a7.657 7.657 0 0 0 7.657 7.657h85.983a7.657 7.657 0 0 0 7.657-7.657v-61.796c0-6.975-5.675-12.649-12.649-12.649zm-2.665 66.787H365.23v-51.474h70.669v51.474zm-128.318-25.735a7.657 7.657 0 0 0-7.657 7.657v13.272a7.657 7.657 0 0 0 15.314 0v-13.272a7.657 7.657 0 0 0-7.657-7.657z"/><path d="M491.992 458.803h-20.81V288.645h5.275c5.952 0 10.794-4.843 10.794-10.794v-18.104c0-5.952-4.842-10.794-10.794-10.794h-5.275V143.762l10.576 7.035a19.43 19.43 0 0 0 10.78 3.268c3.752 0 7.506-1.089 10.779-3.267A19.42 19.42 0 0 0 512 134.594a19.42 19.42 0 0 0-8.683-16.205l-40.802-27.142a7.657 7.657 0 0 0-8.481 12.751l40.802 27.142c1.671 1.111 1.851 2.785 1.85 3.454 0 .668-.18 2.343-1.85 3.454a4.135 4.135 0 0 1-4.594-.001l-140.65-93.562a11.303 11.303 0 0 0-12.545 0l-140.649 93.56a4.136 4.136 0 0 1-4.595 0c-1.67-1.111-1.85-2.785-1.85-3.453 0-.669.18-2.343 1.85-3.454L343.32 30.35l71.003 47.231a7.657 7.657 0 0 0 8.481-12.751l-73.212-48.701a11.301 11.301 0 0 0-12.545 0l-45.645 30.363v-12.2c0-5.951-4.842-10.792-10.792-10.792h-50.765c-5.951 0-10.792 4.842-10.792 10.792v14.977c0 5.021 3.452 9.24 8.104 10.439v29.521l-43.835 29.159a19.422 19.422 0 0 0-8.683 16.205 19.42 19.42 0 0 0 8.683 16.203 19.415 19.415 0 0 0 21.559.001l10.576-7.035v93.054l-86.492-39.365a11.813 11.813 0 0 0-9.792 0L4.762 249.523A7.656 7.656 0 0 0 0 256.61v21.241c0 5.952 4.842 10.794 10.794 10.794h6.565v170.36C7.867 460.304.523 468.444.523 478.287c0 10.743 8.74 19.484 19.484 19.484h471.985c10.743 0 19.484-8.741 19.484-19.484 0-10.743-8.74-19.484-19.484-19.484zM267.984 62.07L242.47 79.042V60.061h25.514v2.009zm-33.618-23.256h41.722v5.932h-41.722v-5.932zm-3.596 209.901v-115.14l112.55-74.869 112.549 74.868v115.378H230.77v-.237zm-106.702-36.666l81.083 36.903H42.986l81.082-36.903zM15.314 273.33v-9.064h456.623v9.064H15.314zm309.244 73.823h-59.504c-7.558 0-13.708 6.15-13.708 13.708v97.942H230.77V288.645h225.098v170.158H338.265v-97.942c0-7.558-6.149-13.708-13.707-13.708zm-1.607 15.314v96.336H266.66v-96.336h56.291zM80.14 366.214H65.237v-12.97a3.23 3.23 0 0 1 3.226-3.226h111.209a3.23 3.23 0 0 1 3.226 3.226v12.97h-54.924a7.657 7.657 0 1 0 0 15.314h54.924v16.197H65.237v-16.197H80.14a7.657 7.657 0 1 0 0-15.314zm102.759 46.826v16.197H65.237V413.04h117.662zm0 31.511v14.252H65.237v-14.252h117.662zm-3.227-109.849H68.464c-10.224 0-18.541 8.317-18.541 18.541v105.56H32.674V288.645h182.782v170.158h-17.243v-105.56c0-10.224-8.317-18.541-18.541-18.541zm312.321 147.756H20.008c-2.299 0-4.17-1.871-4.17-4.17s1.87-4.17 4.17-4.17h471.985c2.299 0 4.17 1.87 4.17 4.17s-1.871 4.17-4.17 4.17z"/></svg>