<svg xmlns="http://www.w3.org/2000/svg" viewBox="0 0 460.3 366.3" fill="#313131"><path d="M230.1 73.9L66 209.3c0 .2 0 .5-.1.9s-.1.7-.1.9v137c0 4.9 1.8 9.2 5.4 12.8 3.6 3.6 7.9 5.4 12.8 5.4h109.6V256.7h73.1v109.6h109.6c4.9 0 9.2-1.8 12.8-5.4 3.6-3.6 5.4-7.9 5.4-12.8V211c0-.8-.1-1.3-.3-1.7L230.1 73.9z"/><path d="M457.1 178.4l-62.5-52V10c0-2.7-.9-4.9-2.6-6.6-1.7-1.7-3.9-2.6-6.6-2.6h-54.8c-2.7 0-4.9.9-6.6 2.6-1.7 1.7-2.6 3.9-2.6 6.6v55.7L251.8 7.4c-6-4.9-13.3-7.4-21.6-7.4-8.4 0-15.6 2.5-21.7 7.4L3.2 178.4c-1.9 1.6-3 3.6-3.2 6.2-.2 2.6.5 4.8 2 6.7l17.7 21.1c1.5 1.7 3.5 2.8 6 3.1 2.3.2 4.6-.5 6.9-2L230.1 48.8l197.6 164.7c1.5 1.3 3.5 2 6 2h.9c2.5-.4 4.5-1.4 6-3.1l17.7-21.1c1.5-1.9 2.2-4.1 2-6.7-.2-2.6-1.3-4.6-3.2-6.2z"/></svg>