<svg xmlns="http://www.w3.org/2000/svg" viewBox="0 0 496 496" fill="#a7b51a"><path d="M107.1.6c-3-1.2-6.4-.6-8.7 1.7L56 44.7 13.7 2.3C11.4 0 8-.7 5 .6 1.9 1.8 0 4.8 0 8v96c0 2.1.8 4.2 2.3 5.7L48 155.3V168H16v16h32v16H16v16h32v184H8c-2.9 0-5.5 1.5-7 4.1s-1.4 5.6.1 8.1l48 80c1.4 2.4 4 3.9 6.9 3.9s5.4-1.5 6.9-3.9l48-80c1.5-2.5 1.5-5.5.1-8.1-1.4-2.5-4.1-4.1-7-4.1H64V216h32v-16H64v-16h32v-16H64v-12.7l45.7-45.7c1.5-1.5 2.3-3.5 2.3-5.7V8c0-3.2-1.9-6.2-4.9-7.4zM56 472.5L22.1 416h67.7L56 472.5zm40-371.8l-40 40-40-40V27.3l34.3 34.3c3.1 3.1 8.2 3.1 11.3 0L96 27.3v73.4zM235.1.6c-3-1.2-6.4-.6-8.7 1.7L184 44.7 141.7 2.3C139.4 0 136-.7 133 .6c-3 1.2-4.9 4.2-4.9 7.4v96c0 2.1.8 4.2 2.3 5.7l45.7 45.7V168h-32v16h32v16h-32v16h32v184h-40c-2.9 0-5.5 1.5-7 4.1s-1.4 5.6.1 8.1l48 80c1.4 2.4 4 3.9 6.9 3.9s5.4-1.5 6.9-3.9l48-80c1.5-2.5 1.5-5.5.1-8.1-1.4-2.5-4.1-4.1-7-4.1h-40V216h32v-16h-32v-16h32v-16h-32v-12.7l45.7-45.7c1.5-1.5 2.3-3.5 2.3-5.7V8c-.1-3.2-2-6.2-5-7.4zM184 472.5L150.1 416h67.7L184 472.5zm40-371.8l-40 40-40-40V27.3l34.3 34.3c3.1 3.1 8.2 3.1 11.3 0L224 27.3v73.4zM360 96c2.9 0 5.5-1.5 7-4.1s1.4-5.6-.1-8.1l-48-80C316-1 308.1-1 305.2 3.8l-48 80c-1.5 2.5-1.5 5.5-.1 8.1 1.4 2.5 4.1 4.1 7 4.1h40v184h-32v16h32v16h-32v16h32v12.7l-45.7 45.7c-1.5 1.5-2.3 3.5-2.3 5.7v96c0 3.2 1.9 6.2 4.9 7.4 3 1.2 6.4.6 8.7-1.7l42.3-42.3 42.3 42.3c1.5 1.5 3.6 2.3 5.7 2.3 1 0 2.1-.2 3.1-.6 3-1.2 4.9-4.2 4.9-7.4v-96c0-2.1-.8-4.2-2.3-5.7L320 340.7V328h32v-16h-32v-16h32v-16h-32V96h40zm-8 372.7l-34.3-34.3c-1.6-1.6-3.6-2.3-5.7-2.3s-4.1.8-5.7 2.3L272 468.7v-73.4l40-40 40 40v73.4zM312 23.5L345.9 80h-67.7L312 23.5zm136 317.2V328h32v-16h-32v-16h32v-16h-32V96h40c2.9 0 5.5-1.5 7-4.1s1.4-5.6-.1-8.1l-48-80C444-1 436.1-1 433.2 3.8l-48 80c-1.5 2.5-1.5 5.5-.1 8.1 1.4 2.5 4.1 4.1 7 4.1h40v184h-32v16h32v16h-32v16h32v12.7l-45.7 45.7c-1.5 1.5-2.3 3.5-2.3 5.7v96c0 3.2 1.9 6.2 4.9 7.4 3 1.2 6.4.6 8.7-1.7l42.3-42.3 42.3 42.3c1.5 1.5 3.6 2.3 5.7 2.3 1 0 2.1-.2 3.1-.6 3-1.2 4.9-4.2 4.9-7.4v-96c0-2.1-.8-4.2-2.3-5.7L448 340.7zm-8-317.2L473.9 80h-67.7L440 23.5zm40 445.2l-34.3-34.3c-1.6-1.6-3.6-2.3-5.7-2.3s-4.1.8-5.7 2.3L400 468.7v-73.4l40-40 40 40v73.4z"/></svg>