<svg xmlns="http://www.w3.org/2000/svg" viewBox="0 0 493.2 463.7" fill="#313131"><path d="M369.1 259.3c-6.7 13.1-13.4 24.8-19.4 34.6 66.7 14 105.1 40.1 105.1 60.7 0 29.5-79.2 70.7-208.1 70.7S38.5 384 38.5 354.5c0-20.4 37.7-46.3 103.5-60.4-6.1-9.7-12.8-21.4-19.5-34.4C52.9 276.7 0 308.8 0 354.5c0 70.9 127.1 109.2 246.6 109.2s246.6-38.3 246.6-109.2c0-46.1-53.7-78.3-124.1-95.2z"/><path d="M245.6 360.2c25.6 0 125.9-132.3 125.9-222.3C371.5 75.1 342 0 245.6 0S119.7 75.1 119.7 137.9c0 91.1 101.8 222.3 125.9 222.3zm-58.4-236.1c0-32.2 26.2-58.4 58.4-58.4S304 91.9 304 124.1s-26.2 58.4-58.4 58.4c-32.2-.1-58.4-26.3-58.4-58.4z"/></svg>