<svg xmlns="http://www.w3.org/2000/svg" width="98.167" height="98.167" fill="#fff"><path d="M80.708 12.67v-2.127a1.813 1.813 0 0 0-1.813-1.813H1.813A1.814 1.814 0 0 0 0 10.543v77.08c0 1.002.811 1.813 1.813 1.813h77.082a1.813 1.813 0 0 0 1.813-1.813V47.767l-9.656 9.654v22.357H9.657V18.386h61.395v3.94l9.656-9.656z"/><path d="M47.654 50.303c-.19.189-.303.443-.315.693l-1.847 12.851c-.045.338.07.685.312.926a1.086 1.086 0 0 0 .929.307l12.792-1.84c.285-.007.547-.119.754-.328l29.02-29.026-12.609-12.61-29.036 29.027zm50.513-25.741c0-.293-.114-.567-.321-.772L86.785 12.729c-.395-.399-1.15-.399-1.547-.001l-5.221 5.221 12.608 12.609 5.222-5.223c.206-.207.32-.481.32-.773z"/></svg>