<svg xmlns="http://www.w3.org/2000/svg" viewBox="0 0 512 435.9" fill="#a7b51a"><path d="M330.3 54.8l-14.5 3.9 21 78.4-69.5 69.5-61-16.3L59.7 336.8 34.2 330l114.9-114.9-10.6-10.6L23.6 319.3l-6.8-25.5 24.9-24.9 26-4 3.5-23 23-3.5 3.5-23 23-3.5 4-26 30.4-30.4 20.4 20.4 10.6-10.6-24.2-24.2L147 86.2l69.5-69.5 72.7 19.5 3.9-14.5L212 0l-81.7 81.7 16.3 61-36.2 36.2-3.1 19.9-23 3.5-3.5 23-23 3.5-3.5 23-19.9 3.1L0 289.3 13.6 340l50.6 13.6L210.8 207l61 16.3 81.7-81.7-23.2-86.8z"/><path d="M283.7 51.9c-2.7-.9-5.6-1.3-8.6-1.3-15.3 0-27.8 12.5-27.8 27.8s12.5 27.8 27.8 27.8S303 93.7 303 78.3c0-6.9-2.5-13.1-6.6-18 12.4-12.8 29.7-20.7 48.7-20.7 37.2 0 67.6 30.3 67.6 67.5 0 3.5-.3 6.9-.8 10.3-2-.4-4.1-.6-6.2-.6-18.3 0-33.1 14.9-33.1 33.1 0 18.3 14.9 33.1 33.1 33.1 18.3 0 33.1-14.9 33.1-33.1 0-10.6-5.1-20.1-12.9-26.2 1.1-5.4 1.7-11 1.7-16.7 0-45.5-37-82.5-82.6-82.5-24.1.1-46.1 10.6-61.3 27.4zm121.9 80c.8 0 1.5 0 2.2.1-3.9 10-10.2 18.9-18.5 26.1-1.2-2.4-1.9-5.2-1.9-8.1.1-10 8.2-18.1 18.2-18.1zm18.2 18.1c0 10-8.1 18.1-18.1 18.1-1.5 0-3-.2-4.4-.5 8.4-7.8 15-17.2 19.5-27.6 1.9 2.9 3 6.3 3 10zM273.7 65.6c-3.7 6.4-6.6 13.3-8.5 20.7-1.7-2.2-2.8-5-2.8-8 0-6.5 4.9-11.9 11.3-12.7zM288 78.3c0 5.5-3.5 10.2-8.4 12 1.6-6.2 4-12.1 7.2-17.4.8 1.7 1.2 3.5 1.2 5.4zM337.8 379h135.6V199.6H337.8V379zm15-164.4h105.6V364H352.8V214.6z"/><path d="M369.5 232.6h15V346h-15V232.6zm28.6 0h15V346h-15V232.6zm28.7 0h15V346h-15V232.6zm-71.9-123.1l37-27.8 9 12-37 27.8-9-12z"/><path d="M444.9 100.8l-9 12 61.2 45.9v262.1H314.3V206h-15v229.9H512V151.3l-67.1-50.5zm-274.4 34.8l-12.4-46.4L181 66.3l10.6 10.6-16.8 16.8 10.2 38-14.5 3.9zm28.2-65.8l-10.6-10.6 10.6-10.6 10.6 10.6-10.6 10.6zm17.7-17.7l-10.6-10.6 10.6-10.6L227 41.5l-10.6 10.6z"/><path d="M479.5 410.9h-97.8v-15h97.8v15zm-107.8 0h-15v-15h15v15zm-25 0h-15v-15h15v15z"/></svg>