<svg xmlns="http://www.w3.org/2000/svg" viewBox="0 0 39.1 27.6" fill="#313131"><path d="M38.8 8.6c-.2-.2-.5-.4-.8-.4h-3.8c-.9-2.5-2.2-4.9-3.5-5.8-4.8-3.2-17.5-3.2-22.4 0-1.3.9-2.6 3.3-3.5 5.8H1c-.3 0-.6.1-.8.4-.2.2-.2.5-.2.8l.6 2.7c.1.5.5.8 1 .8h1.1c-1.1 1.3-1.6 2.8-1.6 4.4 0 2 .7 3.7 2.1 5v3.8c0 .8.7 1.5 1.5 1.5h3.5c.8 0 1.5-.7 1.5-1.5v-1.5h19.6v1.5c0 .8.7 1.5 1.5 1.5h3.5c.8 0 1.5-.7 1.5-1.5v-3.7c1.4-1.3 2.1-3.1 2.1-4.9 0-1.6-.5-3.3-1.7-4.6h1.2c.5 0 .9-.3 1-.8l.6-2.7c.1-.3 0-.6-.2-.8zM10 4.9c3.8-2.5 15.2-2.5 19.1 0 .7.5 1.7 2.5 2.6 4.9H7.4c.9-2.5 1.9-4.4 2.6-4.9zM5.5 17.7c0-1.6 1.3-3 3-3 1.6 0 3 1.3 3 3s-1.3 3-3 3-3-1.4-3-3zm25.1 3c-1.6 0-3-1.3-3-3s1.3-3 3-3c1.6 0 3 1.3 3 3s-1.3 3-3 3z"/></svg>