<svg xmlns="http://www.w3.org/2000/svg" viewBox="0 0 207.849 112.208"><g data-name="Режим изоляции"><path fill="#cda16f" d="M80.155 1.41h19.468v22.05H80.155z"/><path fill="#dfc2a2" d="M80.155 0h19.468v1.41H80.155z"/><path d="M202.225 87.64v3.12a4.633 4.633 0 0 1-4.63 4.63H11.65a4.594 4.594 0 0 1-3.8-2 4.519 4.519 0 0 1-.83-2.63v-3.12a4.626 4.626 0 0 1 4.63-4.63h185.943a4.626 4.626 0 0 1 4.63 4.63z" fill="#ffc336"/><path d="M23.728 89.827h157.594a5.054 5.054 0 0 1 5.055 5.054v3.4a5.054 5.054 0 0 1-5.055 5.054H23.728a5.054 5.054 0 0 1-5.055-5.054v-3.4a5.054 5.054 0 0 1 5.055-5.054z" fill="#ffd040"/><rect y="103.335" width="18.673" height="5.68" rx="2.125" fill="#ffd040"/><rect x="192.891" y="97.655" width="14.958" height="5.68" rx="2.125" fill="#ffc640"/><rect x="114.821" y="106.175" width="36.949" height="6.033" rx="2.257" fill="#ffe760"/><path d="M175.5 102.587h-7.03a.915.915 0 0 1-.916-.915.915.915 0 0 1 .915-.915h7.031a.915.915 0 0 1 .915.915.915.915 0 0 1-.915.915zm-32.394-2.77h-7.031a.915.915 0 0 1-.915-.915.915.915 0 0 1 .915-.915h7.03a.915.915 0 0 1 .916.915.915.915 0 0 1-.915.915zm21.074.915h-8.808a.915.915 0 0 1-.915-.915.915.915 0 0 1 .915-.915h8.807a.915.915 0 0 1 .915.915.915.915 0 0 1-.915.915zm-9.4-3.867h-7.031a.915.915 0 0 1-.915-.915.915.915 0 0 1 .915-.915h7.03a.915.915 0 0 1 .916.915.915.915 0 0 1-.915.915zm-45.487 1.83h-7.03a.915.915 0 0 1-.916-.915.915.915 0 0 1 .915-.915h7.031a.915.915 0 0 1 .915.915.915.915 0 0 1-.915.915zm69.11-1.735h-7.031a.915.915 0 0 1-.915-.915.915.915 0 0 1 .915-.915h7.03a.915.915 0 0 1 .916.915.915.915 0 0 1-.915.915zm-43.466 0h-7.031a.915.915 0 0 1-.915-.915.915.915 0 0 1 .915-.915h7.03a.915.915 0 0 1 .916.915.915.915 0 0 1-.915.915zm-40.717.82h-7.032a.915.915 0 0 1-.915-.915.915.915 0 0 1 .915-.915h7.031a.915.915 0 0 1 .915.915.915.915 0 0 1-.915.915zm-59.695 1.485h-7.031a.915.915 0 0 1-.915-.915.915.915 0 0 1 .915-.915h7.03a.915.915 0 0 1 .916.915.915.915 0 0 1-.915.915zm53.774 3.322H75.443a.915.915 0 0 1-.915-.915.915.915 0 0 1 .915-.915H88.3a.915.915 0 0 1 .915.915.915.915 0 0 1-.915.915zm-7.865-6.542H67.578a.915.915 0 0 1-.915-.915.915.915 0 0 1 .915-.915h12.856a.915.915 0 0 1 .915.915.915.915 0 0 1-.915.915zm47.411 5.627H112.39a.915.915 0 0 1-.915-.915.915.915 0 0 1 .915-.915h15.456a.915.915 0 0 1 .915.915.915.915 0 0 1-.915.915zm-58.661-.915h-11.77a.915.915 0 0 1-.915-.915.915.915 0 0 1 .915-.915h11.77a.915.915 0 0 1 .915.915.915.915 0 0 1-.915.915zm-20.618 1.83H33.11a.915.915 0 0 1-.914-.915.915.915 0 0 1 .915-.915h15.456a.915.915 0 0 1 .915.915.915.915 0 0 1-.916.915zM166.64 95.13h-3.09a.915.915 0 0 1-.916-.915.915.915 0 0 1 .915-.915h3.09a.915.915 0 0 1 .915.915.915.915 0 0 1-.915.915zm-16.655 7.457h-3.09a.915.915 0 0 1-.915-.915.915.915 0 0 1 .915-.915h3.09a.915.915 0 0 1 .915.915.915.915 0 0 1-.915.915zm-47.404 0h-3.09a.915.915 0 0 1-.915-.915.915.915 0 0 1 .915-.915h3.09a.915.915 0 0 1 .915.915.915.915 0 0 1-.915.915z" fill="#ffe540"/><rect x="48.223" y="96.52" width="4.92" height="1.83" rx=".915" fill="#ffe540"/><path d="M177.509 55.362a22.475 22.475 0 0 0-8.044-8.493h3.807l-6.275-1.34a21.038 21.038 0 0 0-1.28-.553l2.052-3.278-3.007 2.938-.016-.005a23.64 23.64 0 0 0-10.88 7.13l.009-.04-4.296 4.346 2.198-1.02a16.128 16.128 0 0 0-1.376 4.246c-1.333 7.63-1.892 28.177-1.892 28.177h32.193s3.189-20.1-3.193-32.108z" fill="#fe9000"/><path fill="#a45e00" d="M148.278 67.835h32.096v1.104h-32.096z"/><path d="M194.004 59.11a22.475 22.475 0 0 0-8.044-8.492h3.807l-6.275-1.34a21.038 21.038 0 0 0-1.28-.553l2.053-3.278-3.008 2.938-.016-.005a23.64 23.64 0 0 0-10.88 7.13l.01-.04-4.297 4.345 2.198-1.02a16.125 16.125 0 0 0-1.376 4.247c-1.333 7.63-1.892 28.177-1.892 28.177h32.314s3.068-20.1-3.314-32.108z" fill="#febb0a"/><path d="M78.534 83.01l-7.58 10.38H7.852a4.519 4.519 0 0 1-.83-2.63v-3.12a4.626 4.626 0 0 1 4.63-4.63z" fill="#a6773c" style="mix-blend-mode:multiply"/><path fill="#262632" d="M58.484 65.517h8.692v24.352h-8.692z"/><path fill="#c52e1f" d="M56.064 64.512h8.247l.712 7.962h-8.73l-.189-6.957-.04-1.005z"/><path fill="#e14b3b" d="M55.97 62.181h6.292l2.049 2.331h-8.247l-.094-2.331z"/><path fill="#262632" d="M34.465 65.517h8.692v24.352h-8.692z"/><path fill="#c52e1f" d="M45.558 64.512H37.31l-.712 7.962h8.73l.189-6.957.041-1.005z"/><path fill="#d9b791" d="M73.003 38.359h82.242v55.027H73.003z"/><path fill="#e2babe" style="mix-blend-mode:multiply" d="M112.734 73.033L106.85 49.74l-3.365 4.385v15.604L86.128 49.774l-3.98 2.608V65.75l-2.486-16.01-3.365 4.385v20.233h5.851v1.318h20.261l2.011-1.318h6.252l2.062-1.325z"/><path fill="#e2babe" style="mix-blend-mode:multiply" d="M148.647 73.033l-5.885-23.293-3.365 4.385v15.604L122.04 49.774l-3.979 2.608V65.75l-2.486-16.01-3.365 4.385v20.233h5.851v1.318h20.26l2.012-1.318h6.252l2.062-1.325zM73.003 38.359h82.242v7.35H73.003z"/><path fill="#cda16f" d="M156.014 77.295h-83.78l-1.282 16.091h86.345l-1.283-16.091z"/><path d="M77.655 79.964h5.54a2.77 2.77 0 0 1 2.77 2.77v.85a2.77 2.77 0 0 1-2.77 2.77h-5.54a2.77 2.77 0 0 1-2.77-2.77v-.85a2.77 2.77 0 0 1 2.77-2.77zm15.411 1.598H91.49a1.982 1.982 0 0 0 0 3.965h1.576a1.982 1.982 0 0 0 0-3.965zm31.951 6.882h2.814a1.598 1.598 0 0 1 1.598 1.598v1.105a1.598 1.598 0 0 1-1.598 1.597h-2.814a1.597 1.597 0 0 1-1.597-1.597v-1.105a1.597 1.597 0 0 1 1.597-1.598zm-42.061-.707h5.18a2.53 2.53 0 0 1 2.53 2.53v.32a2.53 2.53 0 0 1-2.53 2.53h-5.18a2.53 2.53 0 0 1-2.53-2.53v-.32a2.53 2.53 0 0 1 2.53-2.53zm52.838-1.383h5.54a2.77 2.77 0 0 1 2.77 2.77v.85a2.77 2.77 0 0 1-2.77 2.77h-5.54a2.77 2.77 0 0 1-2.77-2.77v-.85a2.77 2.77 0 0 1 2.77-2.77zm-38.166.123h7.312a2.58 2.58 0 0 1 2.58 2.58v1.108a2.58 2.58 0 0 1-2.58 2.58h-7.312a2.58 2.58 0 0 1-2.58-2.58v-1.109a2.58 2.58 0 0 1 2.58-2.579zm20.05 3.073h-2.346a1.598 1.598 0 0 0 0 3.195h2.346a1.598 1.598 0 0 0 0-3.196zm-9.639-9.045h-3.157a2.15 2.15 0 0 0 0 4.3h3.157a2.15 2.15 0 0 0 0-4.3z" fill="#bd895b"/><rect x="143.477" y="79.957" width="8.474" height="5.395" rx="2.364" fill="#bd895b"/><path d="M117.772 80.227h4.882a2.77 2.77 0 0 1 2.77 2.77v1.095a2.77 2.77 0 0 1-2.77 2.77h-4.882a2.77 2.77 0 0 1-2.77-2.77v-1.095a2.77 2.77 0 0 1 2.77-2.77zm29.53 8.217h2.345a1.597 1.597 0 0 1 1.598 1.598v.77a1.597 1.597 0 0 1-1.598 1.597h-2.345a1.597 1.597 0 0 1-1.598-1.597v-.77a1.597 1.597 0 0 1 1.598-1.598zm-15.655-7.652h2.753a1.597 1.597 0 0 1 1.598 1.598v.53a1.597 1.597 0 0 1-1.598 1.597h-2.753a1.597 1.597 0 0 1-1.597-1.598v-.53a1.597 1.597 0 0 1 1.597-1.597z" fill="#bd895b"/><path fill="#479cb2" d="M161.999 38.359l-18.474-25.428-16.091-8.144-13.31-1.987v35.559h47.875z"/><path fill="#70bad5" d="M66.249 38.359l18.475-25.428 16.091-8.144L114.124 2.8v35.559H66.249z"/><path fill="#6a463a" d="M27.512 45.709h3.774v47.676h-3.774z"/><path d="M78.045 78.767h5.54a2.77 2.77 0 0 1 2.77 2.77v.85a2.77 2.77 0 0 1-2.77 2.77h-5.54a2.77 2.77 0 0 1-2.77-2.77v-.85a2.77 2.77 0 0 1 2.77-2.77z" fill="#a9834a"/><path d="M93.455 84.33H91.88a1.982 1.982 0 0 1-1.982-1.983 1.982 1.982 0 0 1 1.982-1.982h1.575a1.982 1.982 0 0 1 1.983 1.982 1.982 1.982 0 0 1-1.983 1.983z" fill="#bd7241"/><rect x="123.809" y="87.247" width="6.009" height="4.3" rx="1.597" fill="#bd8341"/><path d="M83.345 86.54h5.181a2.53 2.53 0 0 1 2.53 2.53v.32a2.53 2.53 0 0 1-2.53 2.53h-5.181a2.53 2.53 0 0 1-2.53-2.53v-.32a2.53 2.53 0 0 1 2.53-2.53z" fill="#bd8341"/><rect x="133.413" y="85.157" width="11.081" height="6.39" rx="2.77" fill="#bd7241"/><rect x="95.438" y="85.28" width="12.471" height="6.267" rx="2.579" fill="#a9834a"/><path d="M118.067 91.547h-2.345a1.598 1.598 0 0 1-1.598-1.597 1.598 1.598 0 0 1 1.598-1.598h2.345a1.598 1.598 0 0 1 1.597 1.598 1.597 1.597 0 0 1-1.597 1.597zm-9.639-7.939h-3.156a2.15 2.15 0 0 1-2.15-2.15 2.15 2.15 0 0 1 2.15-2.15h3.156a2.15 2.15 0 0 1 2.15 2.15 2.15 2.15 0 0 1-2.15 2.15zm37.802-4.848h3.747a2.364 2.364 0 0 1 2.363 2.364v.667a2.364 2.364 0 0 1-2.363 2.364h-3.747a2.364 2.364 0 0 1-2.363-2.364v-.667a2.364 2.364 0 0 1 2.363-2.364z" fill="#bd8341"/><path d="M118.162 79.03h4.882a2.77 2.77 0 0 1 2.77 2.77v1.095a2.77 2.77 0 0 1-2.77 2.77h-4.882a2.77 2.77 0 0 1-2.77-2.77V81.8a2.77 2.77 0 0 1 2.77-2.77z" fill="#bd7241"/><rect x="146.094" y="87.247" width="5.54" height="3.965" rx="1.597" fill="#a9834a"/><rect x="130.439" y="79.595" width="5.948" height="3.725" rx="1.597" fill="#a9834a"/><path d="M150.65 90.6h-2.346a1.598 1.598 0 0 1-1.598-1.597v-.77a1.581 1.581 0 0 1 .21-.776 1.59 1.59 0 0 0-.822 1.388v.77a1.598 1.598 0 0 0 1.597 1.597h2.346a1.59 1.59 0 0 0 1.388-.821 1.58 1.58 0 0 1-.776.209zm-56.582-6.883h-1.576a1.976 1.976 0 0 1-1.67-3.04 1.979 1.979 0 0 0 1.058 3.653h1.575a1.976 1.976 0 0 0 1.671-.924 1.967 1.967 0 0 1-1.058.311zm11.874 7.218h-7.313a2.58 2.58 0 0 1-2.579-2.58v-1.108a2.562 2.562 0 0 1 .479-1.488 2.571 2.571 0 0 0-1.091 2.1v1.11a2.58 2.58 0 0 0 2.58 2.578h7.312a2.572 2.572 0 0 0 2.1-1.09 2.56 2.56 0 0 1-1.488.478zm-16.804.373h-5.18a2.53 2.53 0 0 1-2.531-2.53v-.32a2.512 2.512 0 0 1 .464-1.454 2.523 2.523 0 0 0-1.076 2.066v.32a2.53 2.53 0 0 0 2.53 2.53h5.181a2.524 2.524 0 0 0 2.066-1.076 2.513 2.513 0 0 1-1.454.464zm-3.318-7.297a2.75 2.75 0 0 1-1.623.534h-5.54a2.77 2.77 0 0 1-2.77-2.77v-.85a2.749 2.749 0 0 1 .534-1.623 2.76 2.76 0 0 0-1.147 2.236v.85a2.77 2.77 0 0 0 2.77 2.77h5.54a2.76 2.76 0 0 0 2.236-1.147zm60.41.144h3.747a2.36 2.36 0 0 0 1.948-1.028 2.35 2.35 0 0 1-1.336.416h-3.746a2.364 2.364 0 0 1-2.364-2.364v-.668a2.35 2.35 0 0 1 .416-1.335 2.36 2.36 0 0 0-1.028 1.948v.667a2.364 2.364 0 0 0 2.363 2.364zm-37.19-1.16h-3.156a2.147 2.147 0 0 1-1.794-3.331 2.148 2.148 0 0 0 1.182 3.944h3.156a2.146 2.146 0 0 0 1.794-.969 2.137 2.137 0 0 1-1.182.356zm27.138-.496a1.58 1.58 0 0 1-.776.209h-2.753a1.597 1.597 0 0 1-1.598-1.598v-.53a1.58 1.58 0 0 1 .21-.776 1.59 1.59 0 0 0-.822 1.389v.53a1.597 1.597 0 0 0 1.598 1.597h2.753a1.59 1.59 0 0 0 1.388-.821zm6.158 8.436h-5.54a2.77 2.77 0 0 1-2.77-2.77v-.85a2.748 2.748 0 0 1 .534-1.623 2.76 2.76 0 0 0-1.147 2.236v.85a2.77 2.77 0 0 0 2.77 2.77h5.54a2.76 2.76 0 0 0 2.236-1.147 2.748 2.748 0 0 1-1.623.534zm-17.057-6.417a2.747 2.747 0 0 1-1.623.535h-4.882a2.77 2.77 0 0 1-2.77-2.77v-1.095a2.748 2.748 0 0 1 .534-1.624 2.76 2.76 0 0 0-1.147 2.236v1.095a2.77 2.77 0 0 0 2.77 2.77h4.883a2.76 2.76 0 0 0 2.235-1.147zm3.554 6.417h-2.814a1.597 1.597 0 0 1-1.597-1.597v-1.105a1.58 1.58 0 0 1 .209-.776 1.59 1.59 0 0 0-.822 1.388v1.105a1.598 1.598 0 0 0 1.598 1.597h2.814a1.59 1.59 0 0 0 1.388-.821 1.58 1.58 0 0 1-.776.21zm-10.153 0h-2.346a1.597 1.597 0 0 1-1.598-1.597 1.58 1.58 0 0 1 .21-.776 1.592 1.592 0 0 0 .776 2.985h2.345a1.59 1.59 0 0 0 1.388-.821 1.58 1.58 0 0 1-.776.21z" fill="#f0dac7"/><path d="M105.33 85.28h-7.313a2.571 2.571 0 0 0-2.184 1.22 2.568 2.568 0 0 1 1.795-.73h7.312a2.58 2.58 0 0 1 2.58 2.579v1.108a2.56 2.56 0 0 1-.396 1.359 2.568 2.568 0 0 0 .785-1.848V87.86a2.58 2.58 0 0 0-2.58-2.579zm-16.804 1.26h-5.181a2.521 2.521 0 0 0-2.146 1.203 2.519 2.519 0 0 1 1.757-.714h5.18a2.53 2.53 0 0 1 2.53 2.53v.32a2.509 2.509 0 0 1-.384 1.327 2.519 2.519 0 0 0 .774-1.816v-.32a2.53 2.53 0 0 0-2.53-2.53zm4.93-6.175H91.88a1.974 1.974 0 0 0-1.717 1.009 1.968 1.968 0 0 1 1.328-.52h1.575a1.982 1.982 0 0 1 1.982 1.983 1.962 1.962 0 0 1-.265.973 1.976 1.976 0 0 0-1.328-3.445zm38.191-.28h2.754a1.597 1.597 0 0 1 1.597 1.597v.53a1.58 1.58 0 0 1-.182.725 1.587 1.587 0 0 0 .571-1.214v-.53a1.597 1.597 0 0 0-1.597-1.598h-2.754a1.591 1.591 0 0 0-1.415.872 1.583 1.583 0 0 1 1.026-.382zm-53.992-.828h5.54a2.77 2.77 0 0 1 2.77 2.77v.85a2.75 2.75 0 0 1-.436 1.481 2.76 2.76 0 0 0 .826-1.97v-.85a2.77 2.77 0 0 0-2.77-2.77h-5.54a2.762 2.762 0 0 0-2.334 1.288 2.76 2.76 0 0 1 1.944-.8zm40.117.263h4.882a2.77 2.77 0 0 1 2.77 2.77v1.094a2.75 2.75 0 0 1-.436 1.482 2.76 2.76 0 0 0 .826-1.971V81.8a2.77 2.77 0 0 0-2.77-2.77h-4.883a2.762 2.762 0 0 0-2.333 1.288 2.76 2.76 0 0 1 1.944-.799zm-9.344-.212h-3.156a2.14 2.14 0 0 0-1.848 1.068 2.136 2.136 0 0 1 1.458-.58h3.157a2.15 2.15 0 0 1 2.15 2.15 2.127 2.127 0 0 1-.302 1.083 2.144 2.144 0 0 0-1.459-3.721zm41.609 7.939h-2.346a1.592 1.592 0 0 0-1.415.872 1.584 1.584 0 0 1 1.026-.382h2.345a1.598 1.598 0 0 1 1.598 1.597v.77a1.582 1.582 0 0 1-.182.726 1.588 1.588 0 0 0 .571-1.215v-.77a1.598 1.598 0 0 0-1.597-1.598zm-.06-8.487h-3.747a2.355 2.355 0 0 0-2.015 1.144 2.351 2.351 0 0 1 1.626-.654h3.746a2.363 2.363 0 0 1 2.364 2.363v.668a2.342 2.342 0 0 1-.348 1.22 2.35 2.35 0 0 0 .737-1.71v-.667a2.363 2.363 0 0 0-2.363-2.364zm-8.253 6.397h-5.54a2.761 2.761 0 0 0-2.334 1.289 2.76 2.76 0 0 1 1.944-.8h5.54a2.77 2.77 0 0 1 2.77 2.77v.85a2.75 2.75 0 0 1-.436 1.482 2.76 2.76 0 0 0 .826-1.97v-.85a2.77 2.77 0 0 0-2.77-2.77zm-23.657 3.195h-2.345a1.592 1.592 0 0 0-1.416.872 1.585 1.585 0 0 1 1.026-.382h2.346a1.597 1.597 0 0 1 1.597 1.597 1.58 1.58 0 0 1-.182.726 1.591 1.591 0 0 0-1.026-2.813zm10.153-1.105h-2.813a1.591 1.591 0 0 0-1.416.872 1.583 1.583 0 0 1 1.026-.382h2.814a1.598 1.598 0 0 1 1.598 1.597v1.105a1.58 1.58 0 0 1-.182.726 1.587 1.587 0 0 0 .571-1.215v-1.105a1.598 1.598 0 0 0-1.597-1.598z" fill="#a88568"/><path fill="#70615f" d="M36.502 82.969h28.754v1.645H36.502z"/><path fill="#78bab3" d="M56.107 65.517h-10.59l.657-16.332h9.293l.64 16.332z"/><path fill="#a9d3cf" d="M54.931 61.969h-8.237L47.204 51h7.229l.498 10.969z"/><path fill="#de3d2c" d="M56.632 50.177H45.008l.979-1.554h9.932l.713 1.554z"/><circle cx="59.625" cy="70.067" r="2.407" fill="#e14b3b"/><path d="M61.534 70.07a1.91 1.91 0 1 1-1.91-1.91 1.908 1.908 0 0 1 1.91 1.91z" fill="#a7bab3"/><path d="M61.534 70.07a1.91 1.91 0 0 1-3.82 0z" fill="#bec5ff"/><path d="M59.625 70.655a1.633 1.633 0 0 1-1.068-.588 1.263 1.263 0 0 1 2.136 0 1.633 1.633 0 0 1-1.068.588z" fill="#e0e3ff"/><circle cx="42.016" cy="70.067" r="2.407" fill="#e14b3b"/><path d="M42.016 71.974a1.907 1.907 0 1 1 1.907-1.907 1.909 1.909 0 0 1-1.907 1.907z" fill="#a7bab3"/><path d="M43.923 70.07a1.91 1.91 0 0 1-3.82 0z" fill="#bec5ff"/><path d="M42.014 70.655a1.633 1.633 0 0 1-1.068-.588 1.263 1.263 0 0 1 2.135 0 1.633 1.633 0 0 1-1.068.588z" fill="#e0e3ff"/><path fill="#42424c" d="M36.385 76.103h4.851v13.913h-4.851zm24.019 0h4.851v13.913h-4.851z"/><path d="M48.646 63.588h4.334a3.991 3.991 0 0 1 3.991 3.99v13.259H44.655V67.579a3.991 3.991 0 0 1 3.99-3.991z" fill="#de3d2c"/><path fill="#42424c" d="M44.655 70.726h12.316v6.436H44.655z"/><path fill="#34343f" d="M44.655 70.726h6.158v6.436h-6.158z"/><path fill="#c93625" d="M41.255 78.76h5.2v4.57h-5.2z"/><path fill="#e45b4c" d="M46.455 78.76h14.05v4.57h-14.05z"/><path fill="#e14b3b" d="M46.455 78.76h8.85v4.57h-8.85zm-2.032-8.693h12.953v1.318H44.423zm0 2.145h12.953v1.318H44.423zm0 2.146h12.953v1.318H44.423zm0 2.145h12.953v1.318H44.423zm1.228-14.322h-6.292l-2.049 2.331h8.248l.093-2.331z"/><path fill="#569eb2" d="M75.564 25.539l-54.806 20.17v7.35l46.865-16.59 7.941-10.93z"/><path fill="#70bad5" d="M75.564 25.539l-54.806 20.17v4.292l50.549-18.603 4.257-5.859z"/><path fill="#f9f8ee" d="M66.249 33.878h95.75v4.481h-95.75z"/><path d="M56.47 68.781h-1V67.36a2.365 2.365 0 0 0-1.892-2.251v-1a3.304 3.304 0 0 1 2.892 3.25z" fill="#e14b3b"/><path fill="#e25344" d="M51.891 64.012h1.248v1h-1.248z"/><path fill="#f5a44f" d="M86.128 49.774h20.261v23.293H86.128zm35.817 0h20.261v23.293h-20.261z"/><path fill="#3b3944" d="M123.667 51.754h16.817v19.335h-16.817zm-35.818 0h16.817v19.335H87.849z"/><path fill="#626069" d="M87.849 63.347h6.385v7.742h-6.385zm9.404 0h6.385v7.742h-6.385zM87.849 52.65h6.385v7.742h-6.385zm9.404 0h6.385v7.742h-6.385zm26.414 10.697h6.385v7.742h-6.385zm9.404 0h6.385v7.742h-6.385zm-9.404-10.697h6.385v7.742h-6.385zm9.404 0h6.385v7.742h-6.385z"/><path fill="#c26615" d="M95.263 51.754h1.99v19.335h-1.99z"/><path fill="#c26615" d="M87.85 62.382v-1.99h16.816v1.99zm42.984-10.628h1.99v19.267h-1.99z"/><path fill="#c26615" d="M123.667 62.381v-1.99h16.817v1.99zM79.662 49.74h5.884v23.293h-5.884zm27.188 0h5.884v23.293h-5.884zm8.806 0h5.884v23.293h-5.884zm27.106 0h5.884v23.293h-5.884z"/><path fill="#251312" style="mix-blend-mode:screen" d="M143.524 12.93H84.725l16.09-8.14 13.309-1.99 13.311 1.99 16.089 8.14z"/><path fill="#251312" style="mix-blend-mode:screen" d="M127.435 4.79h-26.62l13.309-1.99 13.311 1.99z"/><path fill="#a44a00" d="M108.056 50.641h3.472v21.491h-3.472z"/><path fill="#b86200" d="M108.056 50.641h3.472v.407h-3.472zm0 1.804h3.472v.407h-3.472z"/><path fill="#d98536" d="M108.056 52.241h3.472v.204h-3.472z"/><path fill="#b86200" d="M108.056 53.913h3.472v.407h-3.472z"/><path fill="#d98536" d="M108.056 53.709h3.472v.204h-3.472z"/><path fill="#b86200" d="M108.056 55.381h3.472v.407h-3.472z"/><path fill="#d98536" d="M108.056 55.177h3.472v.204h-3.472z"/><path fill="#b86200" d="M108.056 56.848h3.472v.407h-3.472z"/><path fill="#d98536" d="M108.056 56.645h3.472v.204h-3.472z"/><path fill="#b86200" d="M108.056 58.316h3.472v.407h-3.472z"/><path fill="#d98536" d="M108.056 58.112h3.472v.204h-3.472z"/><path fill="#b86200" d="M108.056 59.784h3.472v.407h-3.472z"/><path fill="#d98536" d="M108.056 59.58h3.472v.204h-3.472z"/><path fill="#b86200" d="M108.056 61.252h3.472v.407h-3.472z"/><path fill="#d98536" d="M108.056 61.048h3.472v.204h-3.472z"/><path fill="#b86200" d="M108.056 62.72h3.472v.407h-3.472z"/><path fill="#d98536" d="M108.056 62.516h3.472v.204h-3.472z"/><path fill="#b86200" d="M108.056 64.187h3.472v.407h-3.472z"/><path fill="#d98536" d="M108.056 63.984h3.472v.204h-3.472z"/><path fill="#b86200" d="M108.056 65.655h3.472v.407h-3.472z"/><path fill="#d98536" d="M108.056 65.451h3.472v.204h-3.472z"/><path fill="#b86200" d="M108.056 67.123h3.472v.407h-3.472z"/><path fill="#d98536" d="M108.056 66.919h3.472v.204h-3.472z"/><path fill="#b86200" d="M108.056 68.591h3.472v.407h-3.472z"/><path fill="#d98536" d="M108.056 68.387h3.472v.204h-3.472z"/><path fill="#b86200" d="M108.056 70.058h3.472v.407h-3.472z"/><path fill="#d98536" d="M108.056 69.855h3.472v.204h-3.472z"/><path fill="#b86200" d="M108.056 71.526h3.472v.407h-3.472z"/><path fill="#d98536" d="M108.056 71.323h3.472v.204h-3.472z"/><path fill="#a44a00" d="M80.868 50.641h3.472v21.491h-3.472z"/><path fill="#b86200" d="M80.868 50.641h3.472v.407h-3.472zm0 1.804h3.472v.407h-3.472z"/><path fill="#d98536" d="M80.868 52.241h3.472v.204h-3.472z"/><path fill="#b86200" d="M80.868 53.913h3.472v.407h-3.472z"/><path fill="#d98536" d="M80.868 53.709h3.472v.204h-3.472z"/><path fill="#b86200" d="M80.868 55.381h3.472v.407h-3.472z"/><path fill="#d98536" d="M80.868 55.177h3.472v.204h-3.472z"/><path fill="#b86200" d="M80.868 56.848h3.472v.407h-3.472z"/><path fill="#d98536" d="M80.868 56.645h3.472v.204h-3.472z"/><path fill="#b86200" d="M80.868 58.316h3.472v.407h-3.472z"/><path fill="#d98536" d="M80.868 58.112h3.472v.204h-3.472z"/><path fill="#b86200" d="M80.868 59.784h3.472v.407h-3.472z"/><path fill="#d98536" d="M80.868 59.58h3.472v.204h-3.472z"/><path fill="#b86200" d="M80.868 61.252h3.472v.407h-3.472z"/><path fill="#d98536" d="M80.868 61.048h3.472v.204h-3.472z"/><path fill="#b86200" d="M80.868 62.72h3.472v.407h-3.472z"/><path fill="#d98536" d="M80.868 62.516h3.472v.204h-3.472z"/><path fill="#b86200" d="M80.868 64.187h3.472v.407h-3.472z"/><path fill="#d98536" d="M80.868 63.984h3.472v.204h-3.472z"/><path fill="#b86200" d="M80.868 65.655h3.472v.407h-3.472z"/><path fill="#d98536" d="M80.868 65.451h3.472v.204h-3.472z"/><path fill="#b86200" d="M80.868 67.123h3.472v.407h-3.472z"/><path fill="#d98536" d="M80.868 66.919h3.472v.204h-3.472z"/><path fill="#b86200" d="M80.868 68.591h3.472v.407h-3.472z"/><path fill="#d98536" d="M80.868 68.387h3.472v.204h-3.472z"/><path fill="#b86200" d="M80.868 70.058h3.472v.407h-3.472z"/><path fill="#d98536" d="M80.868 69.855h3.472v.204h-3.472z"/><path fill="#b86200" d="M80.868 71.526h3.472v.407h-3.472z"/><path fill="#d98536" d="M80.868 71.323h3.472v.204h-3.472z"/><path fill="#a44a00" d="M143.933 50.641h3.472v21.491h-3.472z"/><path fill="#b86200" d="M143.933 50.641h3.472v.407h-3.472zm0 1.804h3.472v.407h-3.472z"/><path fill="#d98536" d="M143.933 52.241h3.472v.204h-3.472z"/><path fill="#b86200" d="M143.933 53.913h3.472v.407h-3.472z"/><path fill="#d98536" d="M143.933 53.709h3.472v.204h-3.472z"/><path fill="#b86200" d="M143.933 55.381h3.472v.407h-3.472z"/><path fill="#d98536" d="M143.933 55.177h3.472v.204h-3.472z"/><path fill="#b86200" d="M143.933 56.848h3.472v.407h-3.472z"/><path fill="#d98536" d="M143.933 56.645h3.472v.204h-3.472z"/><path fill="#b86200" d="M143.933 58.316h3.472v.407h-3.472z"/><path fill="#d98536" d="M143.933 58.112h3.472v.204h-3.472z"/><path fill="#b86200" d="M143.933 59.784h3.472v.407h-3.472z"/><path fill="#d98536" d="M143.933 59.58h3.472v.204h-3.472z"/><path fill="#b86200" d="M143.933 61.252h3.472v.407h-3.472z"/><path fill="#d98536" d="M143.933 61.048h3.472v.204h-3.472z"/><path fill="#b86200" d="M143.933 62.72h3.472v.407h-3.472z"/><path fill="#d98536" d="M143.933 62.516h3.472v.204h-3.472z"/><path fill="#b86200" d="M143.933 64.187h3.472v.407h-3.472z"/><path fill="#d98536" d="M143.933 63.984h3.472v.204h-3.472z"/><path fill="#b86200" d="M143.933 65.655h3.472v.407h-3.472z"/><path fill="#d98536" d="M143.933 65.451h3.472v.204h-3.472z"/><path fill="#b86200" d="M143.933 67.123h3.472v.407h-3.472z"/><path fill="#d98536" d="M143.933 66.919h3.472v.204h-3.472z"/><path fill="#b86200" d="M143.933 68.591h3.472v.407h-3.472z"/><path fill="#d98536" d="M143.933 68.387h3.472v.204h-3.472z"/><path fill="#b86200" d="M143.933 70.058h3.472v.407h-3.472z"/><path fill="#d98536" d="M143.933 69.855h3.472v.204h-3.472z"/><path fill="#b86200" d="M143.933 71.526h3.472v.407h-3.472z"/><path fill="#d98536" d="M143.933 71.323h3.472v.204h-3.472z"/><path fill="#a44a00" d="M116.746 50.641h3.472v21.491h-3.472z"/><path fill="#b86200" d="M116.746 50.641h3.472v.407h-3.472zm0 1.804h3.472v.407h-3.472z"/><path fill="#d98536" d="M116.746 52.241h3.472v.204h-3.472z"/><path fill="#b86200" d="M116.746 53.913h3.472v.407h-3.472z"/><path fill="#d98536" d="M116.746 53.709h3.472v.204h-3.472z"/><path fill="#b86200" d="M116.746 55.381h3.472v.407h-3.472z"/><path fill="#d98536" d="M116.746 55.177h3.472v.204h-3.472z"/><path fill="#b86200" d="M116.746 56.848h3.472v.407h-3.472z"/><path fill="#d98536" d="M116.746 56.645h3.472v.204h-3.472z"/><path fill="#b86200" d="M116.746 58.316h3.472v.407h-3.472z"/><path fill="#d98536" d="M116.746 58.112h3.472v.204h-3.472z"/><path fill="#b86200" d="M116.746 59.784h3.472v.407h-3.472z"/><path fill="#d98536" d="M116.746 59.58h3.472v.204h-3.472z"/><path fill="#b86200" d="M116.746 61.252h3.472v.407h-3.472z"/><path fill="#d98536" d="M116.746 61.048h3.472v.204h-3.472z"/><path fill="#b86200" d="M116.746 62.72h3.472v.407h-3.472z"/><path fill="#d98536" d="M116.746 62.516h3.472v.204h-3.472z"/><path fill="#b86200" d="M116.746 64.187h3.472v.407h-3.472z"/><path fill="#d98536" d="M116.746 63.984h3.472v.204h-3.472z"/><path fill="#b86200" d="M116.746 65.655h3.472v.407h-3.472z"/><path fill="#d98536" d="M116.746 65.451h3.472v.204h-3.472z"/><path fill="#b86200" d="M116.746 67.123h3.472v.407h-3.472z"/><path fill="#d98536" d="M116.746 66.919h3.472v.204h-3.472z"/><path fill="#b86200" d="M116.746 68.591h3.472v.407h-3.472z"/><path fill="#d98536" d="M116.746 68.387h3.472v.204h-3.472z"/><path fill="#b86200" d="M116.746 70.058h3.472v.407h-3.472z"/><path fill="#d98536" d="M116.746 69.855h3.472v.204h-3.472z"/><path fill="#b86200" d="M116.746 71.526h3.472v.407h-3.472z"/><path fill="#d98536" d="M116.746 71.323h3.472v.204h-3.472z"/><path fill="#a47a00" d="M165.898 72.521h32.096v1.104h-32.096z"/></g></svg>