<svg xmlns="http://www.w3.org/2000/svg" viewBox="0 0 482.9 306.9" fill="#313131"><path d="M55 92.6c0-25.2 20.5-45.7 45.7-45.7h102.6c15.9 0 30 8.2 38.2 20.6 8.2-12.4 22.2-20.6 38.2-20.6h102.6c25.2 0 45.7 20.5 45.7 45.7v2.1h11.4V50.2c0-27.7-22.5-50.2-50.2-50.2H93.7C66 0 43.5 22.5 43.5 50.2v44.6H55v-2.2zm408.7 23.5H19.2C8.6 116.1 0 124.7 0 135.3v111.5C0 257.4 8.6 266 19.2 266h8l-9.4 26.7c-2 5.6.9 11.7 6.5 13.6 1.2.4 2.4.6 3.6.6 4.4 0 8.5-2.7 10.1-7.1L50 266h383.2l12 33.8c1.6 4.4 5.7 7.1 10.1 7.1 1.2 0 2.4-.2 3.6-.6 5.6-2 8.5-8.1 6.5-13.6L456 266h8c10.6 0 19.2-8.6 19.2-19.2V135.3c-.3-10.6-8.9-19.2-19.5-19.2z"/><path d="M279.6 68.3c-13.4 0-24.4 10.9-24.4 24.4v2.1h151.3v-2.1c0-13.4-10.9-24.4-24.4-24.4H279.6zm-178.9 0c-13.4 0-24.4 10.9-24.4 24.4v2.1h151.3v-2.1c0-13.4-10.9-24.4-24.4-24.4H100.7z"/></svg>