<svg xmlns="http://www.w3.org/2000/svg" viewBox="0 0 384 512" fill="#313131"><circle cx="288" cy="352" r="10.7"/><path d="M344 113.8C342.1 85.9 318.7 64 290.7 64H93.2c-28 0-51.4 21.9-53.2 49.8L21.3 394.7c0 31.4 89.9 53.3 170.7 53.3s170.7-21.9 170.6-54L344 113.8zM81.4 136.7c1-16.9 15.1-30 31.9-30h157.4c16.9 0 30.9 13.2 31.9 30l6.7 108c0 30.3-89.8 32.6-117.3 32.6s-117.3-2.3-117.3-32l6.7-108.6zM96 384c-17.6 0-32-14.4-32-32s14.4-32 32-32 32 14.4 32 32-14.4 32-32 32zm128-21.3h-64c-5.9 0-10.7-4.8-10.7-10.7s4.8-10.7 10.7-10.7h64c5.9 0 10.7 4.8 10.7 10.7s-4.8 10.7-10.7 10.7zm64 21.3c-17.6 0-32-14.4-32-32s14.4-32 32-32 32 14.4 32 32-14.4 32-32 32z"/><circle cx="96" cy="352" r="10.7"/><path d="M295.9 24.8C293.6 22.3 271.1 0 192 0S90.4 22.3 88.1 24.8c-3.9 4.3-3.5 10.7.6 14.7s10.9 3.9 15-.1c.2-.2 19.3-18.1 88.3-18.1 68.9 0 88.1 17.8 88.1 17.8 2.1 2.3 5 3.5 7.9 3.5 2.6 0 5.1-.9 7.2-2.8 4.3-3.9 4.7-10.6.7-15z"/><path d="M229.5 12.2c-5.1-3.1-11.6-1.4-14.6 3.6L192 53.9l-22.9-38.1c-3-5-9.6-6.7-14.6-3.6-5 3-6.7 9.6-3.6 14.6l32 53.3c1.9 3.2 5.4 5.2 9.2 5.2s7.2-2 9.1-5.2l32-53.3c3-5 1.3-11.6-3.7-14.6zM81.6 418.6c-4.5-3.8-11.2-3.3-15 1.2l-64 74.7c-3.8 4.5-3.3 11.2 1.2 15 2 1.7 4.5 2.6 6.9 2.6 3 0 6-1.3 8.1-3.7l64-74.7c3.8-4.6 3.3-11.3-1.2-15.1zm299.8 75.8l-64-74.7c-3.8-4.5-10.6-5-15-1.2s-5 10.6-1.2 15l64 74.7c2.1 2.5 5.1 3.7 8.1 3.7 2.5 0 4.9-.9 7-2.6 4.5-3.7 5-10.5 1.1-14.9z"/><path d="M352 469.3H32c-5.9 0-10.7 4.8-10.7 10.7s4.8 10.7 10.7 10.7h320c5.9 0 10.7-4.8 10.7-10.7s-4.8-10.7-10.7-10.7zm-42.7-42.6H74.7c-5.9 0-10.7 4.8-10.7 10.7S68.8 448 74.7 448h234.7c5.9 0 10.7-4.8 10.7-10.7-.1-5.9-4.9-10.6-10.8-10.6z"/></svg>