<svg xmlns="http://www.w3.org/2000/svg" viewBox="0 0 435.7 512" fill="#a7b51a"><path d="M434.1 20.1c-5.5-15.7-22.8-23.9-38.4-18.4-37.3 13.1-67.5 33.5-96.8 53.2-26.2 17.6-51 34.3-78.9 44.4 0-.1 0-.2-.1-.3-.4-2.4-2-4.4-4.2-5.4-.7-.4-7.6-3.4-19.9-3.4-10 0-20.7 2-31.9 5.9-32.3 11.4-41.6 29.7-41.9 30.5-1.1 2.2-1 4.7.1 6.8 4.9 9 9.1 18.7 12.6 28.7 6.3 18 10 36.4 10.8 53.7-37.3 1.3-71.9 7.3-98.2 17.2C8.2 247.5 0 265.5 0 277.9v171.2C0 474 29.9 487.9 49.7 495c44.5 16 95.2 19.6 142 15.4 29.7-2.2 57-7.5 79.1-15.4 32.1-11.5 49.7-27.8 49.7-45.9V277.9c0-15.1-12.3-28.9-35-39.8 11.2-6.7 14.9-10.9 15.5-11.7 1.5-1.9 2-4.5 1.4-6.8-.7-2.4-2.5-4.2-4.8-5-12.9-4.3-26.2-14.3-38.4-28.9-7.3-8.6-13.9-18.6-19.6-29.5 35.2-12.6 64.5-32.2 92.8-51.3 7.2-4.8 13.1-8.8 19.3-12.8 3.5-2.3 4.4-6.9 2.2-10.4-2.3-3.5-6.9-4.4-10.4-2.2-6.2 4.1-12.2 8.1-19.5 13-28 18.8-56.8 38.2-91 50.2-.1-.1-3.9-9.4-5.4-14-1.7-4.8-3.2-9.7-4.5-14.6 30.4-10.6 56.5-28.2 84-46.7 28.5-19.2 57.9-39 93.4-51.5 7.9-2.8 16.5 1.4 19.3 9.3 2.7 7.8-1.5 16.6-9.3 19.3-13.3 4.7-26.9 11-41.5 19.3-3.6 2-4.9 6.6-2.8 10.2s6.6 4.9 10.2 2.8c13.8-7.9 26.6-13.8 39.1-18.2 15.6-5.5 24-23 18.6-38.5zM138.5 283.6c2 .4 4.1.5 6.1.5 9.4 0 31.3-2.3 74.6-17.2 3.8-1.3 12.2-4.3 12.6-4.5 12.8 2.8 25.7 6.3 37.5 12.1 2.7 1.3 2.7 5.4 0 6.7-5.4 2.6-11.8 5.1-19 7.3-24.6 7.6-56.6 11.8-90 11.8s-65.3-4.2-90-11.8c-7.2-2.2-13.6-4.7-19-7.4-2.7-1.3-2.7-5.4 0-6.7 5.4-2.6 11.8-5.1 19-7.4 19.7-6.1 44.6-10.1 70.9-11.3-1 3.3-2.3 6.6-3.7 9.7-1.1 2.3-2.3 4.5-3.6 6.6-2.9 4.5-.3 10.5 4.6 11.6zM15 449.1v-44.6c5.2 16.4 10.2 37.7 12.1 62.4-7.8-5.8-12.1-12-12.1-17.8zm42 32.5c-.7-.3-1.5-.5-2.2-.8-4.4-1.6-8.5-3.3-12.2-5-2.3-59.6-22.8-102.4-27.6-111.6v-59c.2.2.5.4.7.6 6.9 5.7 14.9 10.1 23.1 13.7 1.3.6 2.7 1.1 4 1.7-3.6 24.2 1 48 5.8 73.1 4.8 25.2 10.2 53.6 8.4 87.3zm37 9.4c-7.8-1.4-15.2-3-22.2-4.9 2.5-37.2-3.3-67.7-8.5-94.7-4.5-23.7-8.5-44.5-6.1-65.1 7.5 2.4 15.6 4.5 24.1 6.3-5.4 27.1-.5 53.7 4.7 81.8 4.4 24 8.9 48.8 8 76.6zm90.2 4.9c-7.8.4-15.8.7-23.9.7-17.8 0-35.2-1.1-51.4-3.2 1.2-30.3-3.8-57.4-8.2-81.6-5.1-27.8-9.6-52.1-4.7-76.4 5.4.9 10.9 1.6 16.5 2.3-1.4 68.1 6.9 101.7 26 105.6 16.4 3.4 29.6-15.8 37.2-27.3 11.7-17.8 24.6-44.4 38.5-79 9.1-1.2 17.9-2.7 26.3-4.5-18.2 30.1-32 59.5-41.3 87.5-7.2 21.8-12.2 46.7-15 75.9zm-47.6-124.2c1.3 8.6 4.2 21.2 15.2 21.2 9 0 18.9-10.7 35.1-53.3 3.5-.2 7-.5 10.4-.8-12.3 30.1-23.8 53.2-34.1 68.9-11.6 17.6-19.1 21.4-21.7 20.9-.7-.1-15.6-4.2-14-89.5 2.6.2 5.1.4 7.7.5-.3 13.4.2 24.1 1.4 32.1zm13.5-31.5c3.4.1 6.7.1 10.1.1 3.4 0 6.8-.1 10.2-.1-9.1 23-14.9 32.1-17.8 35.6-1.1-4.1-2.8-13.9-2.5-35.6zm155.5 108.9c0 11-14.9 22.9-39.8 31.8-.5.2-1.1.4-1.6.5 1.1-53.6 25.5-105.9 41.4-134.5v102.2zm0-131.2c-4 6.1-16.4 25.4-28.6 52.5-12.9 28.7-28 71.6-27.8 115.7-15 4-31.8 6.9-49.8 8.6 2.8-26.9 7.4-49.9 14-70.1 10.2-31 26.4-63.9 48.1-97.7 3.2-1 6.4-2 9.4-3.1 12.3-4.4 24.6-10.1 34.7-18.6v12.7zm0-40c0 11-14.9 22.9-39.8 31.8-33.9 12.2-69.7 15.7-105.5 15.7-35.4 0-72-3.6-105.5-15.7-24.9-9-39.8-20.9-39.8-31.8 0-10.6 14-22.2 37.6-31 24.7-9.3 57.4-15 92.9-16.2-.1 1.5-.2 2.9-.3 4.4 0 .5-.4 5.6-.6 5.6-29 1.1-56.7 5.4-78.6 12.2-8 2.5-15.1 5.2-21.2 8.2-13.7 6.7-13.6 26.9 0 33.6 34.9 17.1 77.3 20.7 115.6 20.7 38.4 0 80.5-3.5 115.6-20.7 13.7-6.7 13.7-26.9 0-33.6-5.9-2.9-12.8-5.6-20.5-8 4.7-2 9.1-4 13.3-6 23 8.9 36.8 20.3 36.8 30.8zm-54-78.1c9.3 10.2 19.1 18.2 29.1 23.7-8 5.1-22.4 12.8-47.3 22.3h-.1c-7.1 2.7-14.1 5.2-21.3 7.7-30.6 10.4-49.3 13.9-59.6 15.1.5-1.2 1-2.4 1.4-3.7 2.7-7.5 4.5-15.4 5.5-23.3.4-3.2.7-6.4.9-9.7h.1c28.6-6.4 56.5-16.5 83.2-28.4 2.7-1.2 5.6-2.5 8.1-3.7zm-9.8-12c-.2.1-.3.1-.5.2a458.56 458.56 0 0 1-80.3 28.3c-.2 0-.3.1-.5.1-.7-19.2-4.7-39.5-11.7-59.4-3.3-9.3-7.1-18.3-11.5-26.8 1.1-1.4 2.6-3.1 4.8-5 4.6-4.2 13-10.2 26.7-15 11.6-4.1 24.9-6.8 37.1-4 1.1 5.4 2.5 10.8 4 16.2 6.8 23.2 17.4 45.9 31.9 65.4z"/></svg>