<?xml version="1.0" standalone="no"?>
<!DOCTYPE svg PUBLIC "-//W3C//DTD SVG 20010904//EN"
 "http://www.w3.org/TR/2001/REC-SVG-20010904/DTD/svg10.dtd">
<svg version="1.0" xmlns="http://www.w3.org/2000/svg"
 width="1024.000000pt" height="1024.000000pt" viewBox="0 0 1024.000000 1024.000000"
 preserveAspectRatio="xMidYMid meet">
<metadata>
Created by potrace 1.11, written by Peter Selinger 2001-2013
</metadata>
<g transform="translate(0.000000,1024.000000) scale(0.100000,-0.100000)"
fill="#000000" stroke="none">
<path d="M3335 8523 c-39 -25 -86 -59 -105 -75 -19 -16 -55 -46 -80 -66 -82
-68 -234 -227 -275 -287 -22 -33 -43 -62 -46 -65 -3 -3 -22 -33 -42 -67 -58
-100 -106 -250 -122 -383 -11 -89 -5 -258 11 -312 3 -9 6 -25 9 -35 6 -34 34
-123 42 -136 4 -6 8 -17 9 -23 4 -23 88 -160 135 -219 74 -94 260 -265 287
-265 6 0 12 -4 14 -10 2 -5 39 -29 83 -54 44 -25 85 -49 91 -55 7 -5 10 -37 8
-83 -2 -40 -5 -131 -8 -201 -2 -71 -6 -130 -8 -132 -1 -1 -43 -6 -93 -9 -178
-14 -216 -18 -320 -32 -22 -3 -60 -7 -85 -9 -25 -2 -45 -4 -45 -5 0 -2 -19 -5
-120 -21 -38 -6 -97 -17 -130 -25 -33 -8 -68 -17 -77 -19 -9 -2 -44 -11 -78
-21 -70 -19 -75 -16 -75 42 1 32 5 41 30 54 33 17 27 13 115 77 137 101 222
213 268 353 55 167 44 329 -33 500 -57 127 -210 292 -374 402 -31 21 -59 38
-63 38 -17 0 -179 -130 -247 -199 -126 -127 -177 -203 -217 -328 -24 -75 -28
-104 -28 -198 0 -133 14 -195 65 -300 61 -126 187 -253 331 -334 61 -35 66
-41 63 -86 -1 -16 -3 -40 -4 -52 -1 -14 -11 -25 -31 -32 -172 -59 -441 -196
-629 -318 -87 -57 -265 -188 -294 -217 -8 -9 -18 -16 -22 -16 -4 0 -12 -6 -19
-12 -8 -7 -42 -38 -77 -68 -78 -66 -354 -342 -426 -425 -29 -33 -58 -67 -66
-75 -12 -14 -80 -98 -117 -143 -8 -11 -20 -24 -25 -31 -20 -23 -153 -202 -180
-243 -15 -24 -32 -43 -36 -43 -5 0 -9 -6 -9 -13 0 -7 -9 -23 -20 -35 -11 -12
-20 -26 -20 -31 0 -5 -7 -16 -15 -24 -21 -22 -185 -274 -185 -286 0 -5 -6 -11
-12 -14 -31 -11 6 -17 88 -17 49 1 98 1 109 1 11 0 67 0 125 0 58 0 112 0 120
0 8 0 62 0 120 0 58 0 110 0 115 0 6 0 61 -1 123 -3 61 -2 112 1 112 5 0 5 5
5 10 2 9 -6 279 -9 305 -5 6 2 14 2 19 1 13 -3 209 -3 221 -1 6 1 14 2 19 1
13 -3 209 -3 221 -1 6 1 14 2 19 1 13 -3 209 -3 221 -1 6 1 14 2 19 1 13 -3
209 -3 221 -1 6 1 15 1 20 0 8 -1 304 -1 545 1 8 0 66 -1 128 -3 61 -2 112 0
112 4 0 4 6 5 14 2 21 -8 226 -10 226 -2 0 4 6 5 14 2 23 -9 226 -10 226 -1 0
5 5 5 10 2 9 -6 279 -9 305 -5 6 2 14 2 19 1 13 -3 209 -3 221 -1 6 1 14 2 19
1 13 -3 209 -3 221 -1 6 1 15 1 20 0 13 -2 257 -2 270 0 6 1 12 2 15 1 16 -6
170 -5 170 1 0 4 6 5 14 2 22 -8 466 -10 466 -2 0 4 6 5 13 2 21 -8 227 -10
227 -2 0 4 6 5 13 2 23 -8 227 -9 227 -1 0 5 4 5 10 2 5 -3 76 -6 156 -7 108
-1 166 -6 217 -19 68 -18 286 -63 357 -74 19 -3 46 -7 60 -10 89 -16 214 -30
350 -41 174 -14 613 -8 720 10 14 3 48 8 75 11 28 4 63 8 80 11 16 2 68 11
115 20 47 9 94 17 105 19 11 1 31 5 45 9 14 3 36 8 50 10 49 8 266 65 360 95
186 58 404 146 533 215 115 62 162 90 165 97 2 5 8 9 14 9 12 0 151 97 228
158 88 71 180 160 264 257 104 121 110 128 147 185 18 28 36 50 41 50 4 0 8 5
8 10 0 6 27 51 61 101 69 103 254 462 248 481 0 2 13 33 30 71 17 37 28 67 24
67 -3 0 -1 6 4 13 6 6 15 28 22 47 l11 35 -47 -51 c-62 -65 -77 -83 -163 -197
-96 -129 -194 -194 -395 -264 -83 -29 -240 -66 -345 -83 -41 -6 -85 -13 -98
-15 -13 -2 -25 2 -27 8 -2 7 -13 55 -25 107 -53 235 -147 471 -284 714 -19 34
-170 260 -187 281 -122 146 -162 192 -229 260 -105 109 -182 179 -270 250 -41
33 -77 63 -80 66 -30 35 -303 203 -430 266 -146 71 -346 151 -422 168 -13 2
-50 12 -83 20 -33 9 -70 18 -82 20 -11 2 -29 6 -40 9 -10 3 -36 8 -58 12 -22
3 -42 7 -45 9 -3 2 -37 6 -75 10 -39 4 -79 9 -90 12 -101 21 -625 22 -625 0 0
-4 -7 -4 -17 1 -9 5 -30 6 -47 2 -17 -5 -58 -11 -91 -15 -32 -4 -62 -8 -65
-10 -3 -2 -24 -6 -45 -8 -157 -19 -631 -178 -696 -233 -8 -8 -22 -14 -31 -14
-8 0 -27 -9 -41 -20 -14 -11 -28 -20 -32 -20 -14 0 -225 -137 -306 -199 -245
-187 -486 -433 -648 -662 l-32 -46 -287 5 c-158 2 -288 5 -289 6 -2 2 -12 190
-19 349 -4 99 -3 141 6 152 6 7 46 25 88 39 42 15 103 42 135 61 32 19 62 35
67 35 4 0 10 3 12 8 2 4 29 27 61 51 178 136 267 311 294 578 26 272 -27 481
-184 720 -58 88 -207 246 -318 339 -83 69 -172 134 -185 134 -5 0 -10 4 -10 9
0 5 -8 11 -17 15 -10 3 -23 8 -28 11 -6 3 -42 -16 -80 -42z m3165 -1588 c115
-14 382 -72 435 -95 11 -5 31 -12 45 -16 94 -26 448 -201 458 -226 2 -4 9 -8
15 -8 14 0 178 -122 264 -195 142 -122 413 -419 413 -454 0 -5 4 -11 9 -13 8
-3 57 -76 104 -153 78 -130 211 -444 231 -545 3 -14 10 -41 15 -60 20 -65 18
-68 -41 -58 -29 5 -66 11 -83 14 -16 2 -54 10 -84 17 -51 11 -55 15 -63 47
-27 110 -78 248 -136 370 -34 70 -107 202 -124 225 -4 6 -41 55 -81 110 -119
161 -251 300 -402 420 -27 22 -52 42 -55 45 -9 10 -185 127 -211 141 -15 8
-48 26 -75 40 -40 22 -171 79 -269 118 -35 14 -142 45 -195 56 -8 2 -47 10
-87 19 -269 58 -629 54 -923 -9 -143 -30 -403 -119 -440 -150 -8 -7 -26 -16
-39 -20 -24 -7 -221 -122 -231 -134 -3 -4 -34 -27 -70 -53 -96 -67 -122 -91
-262 -230 -113 -114 -130 -127 -155 -123 -31 6 -98 13 -126 14 -25 1 33 70
183 221 128 129 185 178 310 268 47 34 90 66 97 72 7 5 14 10 17 10 3 0 40 21
83 47 234 142 614 266 890 289 43 4 80 8 82 10 6 5 447 -4 501 -11z"/>
<path d="M87 3758 c-1 -5 -1 -333 1 -731 l2 -724 78 1 77 1 3 283 2 282 253 1
c138 0 266 2 284 4 154 21 305 151 349 303 48 163 9 333 -103 450 -71 74 -142
112 -238 129 -41 7 -705 8 -708 1z m353 -161 c0 -4 8 -4 18 0 17 9 192 8 289
0 120 -11 218 -104 241 -228 5 -26 8 -55 7 -65 -5 -44 -18 -95 -26 -100 -5 -3
-9 -12 -9 -20 0 -25 -89 -111 -134 -130 -35 -15 -79 -18 -308 -19 l-267 -2 -3
283 -3 283 25 3 c52 6 170 3 170 -5z"/>
<path d="M5058 3762 c-13 -2 -15 -40 -14 -277 1 -151 -2 -275 -5 -275 -3 0
-14 8 -25 19 -33 30 -145 79 -209 90 -78 14 -197 7 -260 -14 -223 -76 -368
-287 -359 -523 7 -148 53 -253 158 -358 102 -101 197 -142 346 -148 113 -4
222 27 304 86 22 15 42 26 44 23 3 -3 6 -22 6 -42 l1 -38 78 -1 c42 -1 77 1
78 5 6 34 2 1444 -4 1448 -10 6 -115 10 -139 5z m-268 -606 c60 -14 128 -56
174 -107 70 -78 79 -105 78 -244 -1 -142 0 -138 -34 -196 -47 -79 -156 -159
-223 -163 -14 0 -25 -3 -25 -6 0 -7 -77 -4 -129 5 -81 14 -171 77 -227 160
-61 90 -74 227 -31 329 72 172 242 262 417 222z"/>
<path d="M5475 3652 c-123 -29 -126 -215 -3 -241 116 -25 201 99 131 193 -28
38 -84 59 -128 48z"/>
<path d="M1688 3325 c-2 -2 -25 -6 -53 -9 -79 -11 -232 -62 -273 -92 -2 -1 11
-33 30 -71 l33 -69 55 28 c104 54 267 73 367 43 54 -16 111 -64 137 -116 21
-43 20 -52 -5 -39 -11 6 -28 13 -37 15 -9 2 -42 10 -72 19 -97 26 -287 13
-352 -24 -10 -6 -25 -10 -33 -10 -8 0 -15 -3 -15 -8 0 -4 -16 -16 -35 -26 -51
-28 -113 -99 -142 -164 -44 -98 -33 -271 21 -340 99 -125 233 -183 408 -178
92 3 156 17 237 53 56 24 74 20 64 -16 -4 -15 5 -17 69 -15 40 0 78 2 83 2 15
3 11 619 -4 692 -32 157 -137 269 -288 309 -38 10 -188 22 -195 16z m216 -465
c32 -12 72 -35 90 -50 l31 -28 0 -109 c0 -122 -2 -126 -85 -168 -116 -58 -239
-75 -340 -47 -30 9 -57 18 -60 21 -3 3 -16 12 -30 19 -26 13 -71 72 -78 101
-12 52 -3 112 22 155 32 54 69 82 150 112 81 30 212 27 300 -6z"/>
<path d="M3516 3323 c-1 -1 -20 -5 -41 -9 -21 -3 -68 -15 -104 -27 -36 -11
-68 -21 -71 -22 -4 -1 -77 -35 -88 -41 -6 -3 63 -134 71 -134 4 0 27 10 50 22
125 64 344 76 415 23 57 -42 102 -100 102 -131 0 -13 -3 -14 -15 -4 -8 7 -15
10 -15 7 0 -3 -17 1 -37 10 -112 46 -315 40 -432 -14 -63 -30 -121 -77 -179
-148 -27 -32 -53 -130 -54 -200 -2 -149 66 -253 207 -321 84 -40 103 -44 220
-49 96 -3 194 16 277 53 48 23 58 21 58 -12 0 -22 3 -23 78 -22 l77 1 1 182
c1 100 4 189 7 197 3 8 3 16 0 19 -3 3 -6 68 -8 144 -2 111 -7 150 -24 202
-49 142 -142 229 -281 261 -46 11 -206 21 -214 13z m184 -445 c74 -20 130 -48
166 -83 6 -6 11 -56 11 -123 l0 -113 -31 -23 c-206 -151 -533 -104 -562 80 -3
22 -8 42 -10 46 -2 4 0 9 6 13 6 4 8 10 5 15 -6 10 20 69 42 95 61 69 156 104
273 100 47 -2 92 -5 100 -7z"/>
<path d="M7040 3323 c-285 -50 -468 -343 -402 -643 34 -152 133 -276 281 -352
169 -86 440 -62 571 52 66 57 80 71 80 78 0 4 -25 32 -55 62 l-54 54 -38 -39
c-161 -166 -491 -112 -596 97 -38 77 -44 108 -21 109 11 1 195 2 409 3 l390 1
-2 90 c-3 155 -45 266 -136 359 -63 63 -135 102 -221 120 -62 13 -160 17 -206
9z m212 -185 c86 -40 168 -142 168 -209 l0 -24 -307 0 c-301 1 -308 1 -305 20
6 34 53 113 89 149 34 34 117 80 158 88 53 11 146 -1 197 -24z"/>
<path d="M6050 3313 c-92 -24 -128 -42 -172 -86 -72 -72 -92 -117 -92 -207 0
-57 5 -85 21 -116 38 -71 118 -136 187 -148 14 -2 29 -7 33 -9 5 -3 57 -8 118
-12 60 -4 124 -13 142 -20 41 -17 65 -55 70 -113 4 -44 2 -49 -35 -85 -21 -21
-45 -40 -53 -41 -8 -2 -23 -7 -34 -12 -11 -5 -51 -8 -90 -8 -80 1 -175 35
-221 78 l-28 25 -33 -25 c-54 -41 -85 -75 -79 -89 8 -23 92 -84 149 -110 31
-13 57 -23 57 -20 0 2 11 0 25 -5 41 -15 170 -22 228 -11 165 30 281 151 278
290 -2 75 -3 82 -31 136 -31 60 -98 119 -164 144 -29 11 -93 22 -149 26 -183
12 -219 30 -230 111 -9 68 35 126 108 142 32 6 170 9 170 2 0 -1 11 -3 25 -6
14 -2 48 -15 75 -29 l50 -24 35 37 c81 88 79 77 24 112 -74 47 -165 71 -274
74 -52 2 -102 1 -110 -1z"/>
<path d="M2369 3295 c-1 -14 -1 -935 0 -966 1 -25 2 -26 79 -25 l77 1 2 215
c4 345 6 370 36 431 35 72 98 136 166 168 45 21 71 26 132 26 65 0 84 -4 135
-31 l60 -30 17 22 c9 13 17 25 17 29 0 3 12 24 26 46 24 39 25 41 7 55 -26 20
-97 52 -130 60 -58 13 -173 16 -224 5 -68 -15 -166 -62 -206 -101 l-32 -30 -3
67 -3 68 -77 0 c-45 0 -78 -4 -79 -10z"/>
<path d="M5429 3299 c-5 -3 -8 -209 -7 -500 l3 -494 78 -1 c64 -1 77 2 78 15
4 69 3 981 -1 982 -18 4 -144 3 -151 -2z"/>
</g>
</svg>
